<?xml version="1.0" encoding="UTF-8" standalone="no" ?>
<svg xmlns="http://www.w3.org/2000/svg" width="226.040px" height="44.448px" viewBox="0 -1509.9 12488.9 2455.9" xmlns:xlink="http://www.w3.org/1999/xlink"><defs><path id="MJX-9-NCM-N-28" d="M318-248C327-248 332-243 332-234C332-231 330-227 327-223C275-183 233-117 202-26C175 53 161 131 161 208L161 292C161 369 175 447 202 526C233 617 275 683 327 723C330 726 332 730 332 734C332 743 327 748 318 748C317 748 314 747 311 745C251 699 201 631 160 540C121 453 101 371 101 292L101 208C101 129 121 47 160-40C201-131 251-199 311-245C314-247 317-248 318-248Z"/><path id="MJX-9-NCM-I-1D465" d="M527 373C527 419 482 442 432 442C389 442 355 419 329 373C308 419 273 442 222 442C173 442 133 419 101 374C74 335 60 306 60 287C60 278 65 273 75 273C84 273 90 278 92 287C111 345 153 413 220 413C253 413 269 392 269 351C269 330 251 252 216 118C199 51 169 18 126 18C112 18 99 21 88 26C114 36 127 54 127 80C127 106 114 119 87 119C54 119 29 91 29 58C29 12 76-11 125-11C167-11 201 12 228 58C247 12 283-11 335-11C383-11 423 12 455 57C482 96 496 125 496 144C496 153 491 158 481 158C472 158 467 153 464 144C447 87 402 18 337 18C304 18 287 38 287 79C287 92 292 120 303 165L337 300C356 375 387 413 431 413C445 413 458 410 469 405C442 396 429 378 429 351C429 325 443 312 470 312C502 312 527 341 527 373Z"/><path id="MJX-9-NCM-N-2C" d="M139 106C107 106 86 82 86 50C86 20 109-5 139-5C153-5 165-1 174 8L175 0C175-63 154-117 112-160C105-168 101-174 101-178C101-188 105-193 114-193C123-193 135-181 152-158C186-110 203-57 203 0C203 53 185 106 139 106Z"/><path id="MJX-9-NCM-I-1D466" d="M163 442C118 442 83 417 58 367C39 328 29 301 29 286C29 277 34 272 45 272C59 272 60 278 64 293C87 372 119 412 160 412C173 412 180 403 180 385C180 369 175 346 164 317C126 214 107 145 107 108C107 32 154-13 231-13C264-13 295-1 323 23C288-109 233-175 158-175C124-175 101-164 89-142C129-140 149-121 149-85C149-60 136-47 109-47C72-47 50-78 50-115C50-170 100-205 158-205C273-205 367-99 392-1L486 377C489 388 490 396 490 401C490 421 479 431 458 431C442 431 429 423 420 408C414 387 409 369 406 354L342 97C332 61 279 16 234 16C196 16 177 41 177 92C177 134 194 198 227 284C240 319 247 343 247 357C247 406 212 442 163 442Z"/><path id="MJX-9-NCM-N-29" d="M78-245C138-199 188-131 229-40C268 47 288 129 288 208L288 292C288 371 268 453 229 540C188 631 138 699 78 745C75 747 72 748 71 748C62 748 57 743 57 734C57 730 59 726 62 723C114 683 156 617 187 526C214 447 228 369 228 292L228 208C228 131 214 53 187-26C156-117 114-183 62-223C59-227 57-231 57-234C57-243 62-248 71-248C72-248 75-247 78-245Z"/><path id="MJX-9-NCM-N-3D" d="M698 367L80 367C64 367 56 359 56 344C56 329 64 321 80 321L698 321C714 321 722 329 722 344C722 356 711 367 698 367M698 179L80 179C64 179 56 171 56 156C56 141 64 133 80 133L698 133C714 133 722 141 722 156C722 169 711 179 698 179Z"/><path id="MJX-9-NCM-S6-28" d="M660-946C675-946 682-939 682-924C682-917 679-911 674-907C606-856 545-777 490-670C393-480 320-209 320 65L320 435C320 560 335 686 364 813C416 1043 523 1293 674 1407C679 1411 682 1417 682 1424C682 1439 675 1446 660 1446C656 1446 652 1444 647 1441C574 1386 505 1304 440 1195C327 1005 226 718 226 435L226 65C226-202 320-477 422-664C490-787 565-880 647-941C652-944 656-946 660-946Z"/><path id="MJX-9-NCM-I-1D45A" d="M657 442C596 442 543 412 498 353C489 412 451 442 383 442C324 442 273 416 231 363C223 407 188 442 137 442C96 442 66 409 45 344C34 312 29 293 29 287C29 278 34 273 45 273C50 273 53 274 56 276C61 285 64 292 66 299C84 375 107 413 134 413C152 413 161 399 161 371C161 358 156 331 145 290L88 63C84 51 79 25 79 19C79-1 90-11 111-11C131-11 145-1 152 19C153 24 160 49 171 92L192 181L222 295C233 318 250 341 272 365C301 397 337 413 380 413C413 413 429 391 429 348C429 335 424 308 414 267L387 153C380 124 364 64 356 32C355 25 354 21 354 19C354-1 365-11 387-11C398-11 406-8 413-1C428 14 429 21 435 48L494 285C497 298 511 321 535 353C565 393 605 413 654 413C687 413 703 391 703 348C703 309 683 236 642 129C633 106 629 87 629 74C629 25 666-11 714-11C759-11 793 14 818 64C838 104 848 131 848 144C848 153 843 158 832 158C825 157 818 148 813 137C791 58 759 18 716 18C703 18 696 28 696 47C696 62 702 84 714 115C755 222 775 295 775 333C775 404 728 442 657 442Z"/><path id="MJX-9-NCM-N-32" d="M237 666C186 666 143 648 106 612C69 576 50 534 50 483C50 449 75 424 106 424C136 424 161 450 161 480C161 513 137 536 105 536C102 536 100 536 98 535C117 584 161 627 224 627C306 627 352 556 352 470C352 403 318 331 250 255L62 43C49 28 50 29 50 0L421 0L450 180L417 180C409 129 402 100 396 91C391 86 361 84 306 84L139 84L236 179C304 243 390 312 419 365C439 400 449 435 449 470C449 588 357 666 237 666Z"/><path id="MJX-9-NCM-N-2212" d="M698 270L80 270C64 270 56 263 56 250C56 237 64 230 80 230L698 230C714 230 722 237 722 250C722 262 710 270 698 270Z"/><path id="MJX-9-NCM-N-31" d="M269 666C228 624 168 603 89 603L89 564C141 564 184 572 217 588L217 82C217 64 213 52 204 47C195 42 170 39 130 39L95 39L95 0C120 2 174 3 257 3C340 3 394 2 419 0L419 39L384 39C343 39 318 42 310 47C302 52 297 64 297 82L297 636C297 660 295 666 269 666Z"/><path id="MJX-9-NCM-N-2B" d="M698 274L413 274L413 559C413 575 405 583 389 583C373 583 365 575 365 559L365 274L80 274C64 274 56 266 56 250C56 234 64 226 80 226L365 226L365-59C365-75 373-83 389-83C405-83 413-75 413-59L413 226L698 226C714 226 722 234 722 250C722 263 711 274 698 274Z"/><path id="MJX-9-NCM-N-2062" d=""/><path id="MJX-9-NCM-S6-29" d="M89-941C162-886 231-804 296-695C409-506 510-218 510 65L510 435C510 702 416 977 314 1164C246 1287 171 1380 89 1441C84 1444 80 1446 76 1446C61 1446 54 1439 54 1424C54 1417 57 1411 62 1407C130 1356 191 1277 246 1170C343 980 416 709 416 435L416 65C416-60 401-186 372-313C320-543 213-793 62-907C57-911 54-917 54-924C54-939 61-946 76-946C80-946 84-944 89-941Z"/></defs><g stroke="#000000" fill="#000000" stroke-width="0" transform="scale(1,-1)"><g data-mml-node="math" data-latex="(x, y) = \left(\frac{m^2-1}{m^2+1}, \frac{2m}{m^2+1}\right)" data-semantic-type="relseq" data-semantic-role="equality" data-semantic-annotation="depth:1" data-semantic-id="37" data-semantic-children="36,34" data-semantic-content="5" data-semantic-attributes="latex:(x, y) = \left(\frac{m^2-1}{m^2+1}, \frac{2m}{m^2+1}\right)" data-semantic-owns="36 5 34" aria-level="0" data-speech-node="true" data-semantic-structure="(37 (36 0 (35 1 2 3) 4) 5 (34 6 (33 (19 (12 (9 7 8) 10 11) (18 (15 13 14) 16 17)) 20 (31 (24 21 23 22) (30 (27 25 26) 28 29))) 32))"><g data-mml-node="mrow" data-semantic-added="true" data-semantic-type="fenced" data-semantic-role="leftright" data-semantic-annotation="depth:2" data-semantic-id="36" data-semantic-children="35" data-semantic-content="0,4" data-semantic-parent="37" data-semantic-owns="0 35 4" aria-level="1" data-speech-node="true"><g data-mml-node="mo" data-latex="(" data-semantic-type="fence" data-semantic-role="open" data-semantic-annotation="depth:3" data-semantic-id="0" data-semantic-parent="36" data-semantic-attributes="latex:(" data-semantic-operator="fenced" aria-level="2" data-speech-node="true"><use data-c="28" xlink:href="#MJX-9-NCM-N-28" xmlns:xlink="http://www.w3.org/1999/xlink"/></g><g data-mml-node="mrow" data-semantic-added="true" data-semantic-type="punctuated" data-semantic-role="sequence" data-semantic-annotation="depth:3" data-semantic-id="35" data-semantic-children="1,2,3" data-semantic-content="2" data-semantic-parent="36" data-semantic-owns="1 2 3" aria-level="2" data-speech-node="true" transform="translate(389,0)"><g data-mml-node="mi" data-latex="x" data-semantic-type="identifier" data-semantic-role="latinletter" data-semantic-font="italic" data-semantic-annotation="clearspeak:simple;depth:4" data-semantic-id="1" data-semantic-parent="35" data-semantic-attributes="latex:x" aria-level="3" data-speech-node="true"><use data-c="1D465" xlink:href="#MJX-9-NCM-I-1D465" xmlns:xlink="http://www.w3.org/1999/xlink"/></g><g data-mml-node="mo" data-latex="," data-semantic-type="punctuation" data-semantic-role="comma" data-semantic-annotation="depth:4" data-semantic-id="2" data-semantic-parent="35" data-semantic-attributes="latex:," data-semantic-operator="punctuated" aria-level="3" data-speech-node="true" transform="translate(572,0)"><use data-c="2C" xlink:href="#MJX-9-NCM-N-2C" xmlns:xlink="http://www.w3.org/1999/xlink"/></g><g data-mml-node="mi" data-latex="y" data-semantic-type="identifier" data-semantic-role="latinletter" data-semantic-font="italic" data-semantic-annotation="clearspeak:simple;depth:4" data-semantic-id="3" data-semantic-parent="35" data-semantic-attributes="latex:y" aria-level="3" data-speech-node="true" transform="translate(1016.7,0)"><use data-c="1D466" xlink:href="#MJX-9-NCM-I-1D466" xmlns:xlink="http://www.w3.org/1999/xlink"/></g></g><g data-mml-node="mo" data-latex=")" data-semantic-type="fence" data-semantic-role="close" data-semantic-annotation="depth:3" data-semantic-id="4" data-semantic-parent="36" data-semantic-attributes="latex:)" data-semantic-operator="fenced" aria-level="2" data-speech-node="true" transform="translate(1895.7,0)"><use data-c="29" xlink:href="#MJX-9-NCM-N-29" xmlns:xlink="http://www.w3.org/1999/xlink"/></g></g><g data-mml-node="mo" data-latex="=" data-semantic-type="relation" data-semantic-role="equality" data-semantic-annotation="nemeth:number;depth:2" data-semantic-id="5" data-semantic-parent="37" data-semantic-attributes="latex:=" data-semantic-operator="relseq,=" aria-level="1" data-speech-node="true" transform="translate(2562.4,0)"><use data-c="3D" xlink:href="#MJX-9-NCM-N-3D" xmlns:xlink="http://www.w3.org/1999/xlink"/></g><g data-mml-node="TeXAtom" data-mjx-texclass="INNER" data-latex-item="\left(\frac{m^2-1}{m^2+1}, \frac{2m}{m^2+1}\right)" data-latex="\left(\frac{m^2-1}{m^2+1}, \frac{2m}{m^2+1}\right)" data-semantic-type="fenced" data-semantic-role="leftright" data-semantic-annotation="depth:2" data-semantic-id="34" data-semantic-children="33" data-semantic-content="6,32" data-semantic-parent="37" data-semantic-attributes="latex:\left(\frac{m^2-1}{m^2+1}, \frac{2m}{m^2+1}\right);texclass:INNER" data-semantic-owns="6 33 32" aria-level="1" data-speech-node="true" transform="translate(3618.2,0)"><g data-mml-node="mo" data-mjx-texclass="OPEN" data-latex-item="\left(" data-latex="\left(" data-semantic-type="fence" data-semantic-role="open" data-semantic-annotation="depth:3" data-semantic-id="6" data-semantic-parent="34" data-semantic-attributes="latex:\left(;texclass:OPEN" data-semantic-operator="fenced" aria-level="2" data-speech-node="true"><use data-c="28" xlink:href="#MJX-9-NCM-S6-28" xmlns:xlink="http://www.w3.org/1999/xlink"/></g><g data-mml-node="mrow" data-semantic-added="true" data-semantic-type="punctuated" data-semantic-role="sequence" data-semantic-annotation="depth:3" data-semantic-id="33" data-semantic-children="19,20,31" data-semantic-content="20" data-semantic-parent="34" data-semantic-owns="19 20 31" aria-level="2" data-speech-node="true" transform="translate(736,0)"><g data-mml-node="mfrac" data-latex="\frac{m^2-1}{m^2+1}" data-semantic-type="fraction" data-semantic-role="division" data-semantic-annotation="depth:4" data-semantic-id="19" data-semantic-children="12,18" data-semantic-parent="33" data-semantic-attributes="latex:\frac{m^2-1}{m^2+1}" data-semantic-owns="12 18" aria-level="3" data-speech-node="true"><g data-mml-node="mrow" data-latex="m^2 -1" data-semantic-type="infixop" data-semantic-role="subtraction" data-semantic-annotation="depth:5" data-semantic-id="12" data-semantic-children="9,11" data-semantic-content="10" data-semantic-parent="19" data-semantic-attributes="latex:m^2 -1" data-semantic-owns="9 10 11" aria-level="4" data-speech-node="true" transform="translate(220,676)"><g data-mml-node="msup" data-latex="m^2" data-semantic-type="superscript" data-semantic-role="latinletter" data-semantic-annotation="depth:6" data-semantic-id="9" data-semantic-children="7,8" data-semantic-parent="12" data-semantic-attributes="latex:m^2" data-semantic-owns="7 8" aria-level="5" data-speech-node="true"><g data-mml-node="mi" data-latex="m" data-semantic-type="identifier" data-semantic-role="latinletter" data-semantic-font="italic" data-semantic-annotation="clearspeak:simple;depth:7" data-semantic-id="7" data-semantic-parent="9" data-semantic-attributes="latex:m" aria-level="6" data-speech-node="true"><use data-c="1D45A" xlink:href="#MJX-9-NCM-I-1D45A" xmlns:xlink="http://www.w3.org/1999/xlink"/></g><g data-mml-node="mn" transform="translate(911,363) scale(0.707)" data-latex="2" data-semantic-type="number" data-semantic-role="integer" data-semantic-font="normal" data-semantic-annotation="clearspeak:simple;depth:7" data-semantic-id="8" data-semantic-parent="9" data-semantic-attributes="latex:2" aria-level="6" data-speech-node="true"><use data-c="32" xlink:href="#MJX-9-NCM-N-32" xmlns:xlink="http://www.w3.org/1999/xlink"/></g></g><g data-mml-node="mo" data-latex="-" data-semantic-type="operator" data-semantic-role="subtraction" data-semantic-annotation="depth:6" data-semantic-id="10" data-semantic-parent="12" data-semantic-attributes="latex:-" data-semantic-operator="infixop,−" aria-level="5" data-speech-node="true" transform="translate(1536.8,0)"><use data-c="2212" xlink:href="#MJX-9-NCM-N-2212" xmlns:xlink="http://www.w3.org/1999/xlink"/></g><g data-mml-node="mn" data-latex="1" data-semantic-type="number" data-semantic-role="integer" data-semantic-font="normal" data-semantic-annotation="clearspeak:simple;depth:6" data-semantic-id="11" data-semantic-parent="12" data-semantic-attributes="latex:1" aria-level="5" data-speech-node="true" transform="translate(2537,0)"><use data-c="31" xlink:href="#MJX-9-NCM-N-31" xmlns:xlink="http://www.w3.org/1999/xlink"/></g></g><g data-mml-node="mrow" data-latex="m^2 +1" data-semantic-type="infixop" data-semantic-role="addition" data-semantic-annotation="depth:5" data-semantic-id="18" data-semantic-children="15,17" data-semantic-content="16" data-semantic-parent="19" data-semantic-attributes="latex:m^2 +1" data-semantic-owns="15 16 17" aria-level="4" data-speech-node="true" transform="translate(220,-719.9)"><g data-mml-node="msup" data-latex="m^2" data-semantic-type="superscript" data-semantic-role="latinletter" data-semantic-annotation="depth:6" data-semantic-id="15" data-semantic-children="13,14" data-semantic-parent="18" data-semantic-attributes="latex:m^2" data-semantic-owns="13 14" aria-level="5" data-speech-node="true"><g data-mml-node="mi" data-latex="m" data-semantic-type="identifier" data-semantic-role="latinletter" data-semantic-font="italic" data-semantic-annotation="clearspeak:simple;depth:7" data-semantic-id="13" data-semantic-parent="15" data-semantic-attributes="latex:m" aria-level="6" data-speech-node="true"><use data-c="1D45A" xlink:href="#MJX-9-NCM-I-1D45A" xmlns:xlink="http://www.w3.org/1999/xlink"/></g><g data-mml-node="mn" transform="translate(911,289) scale(0.707)" data-latex="2" data-semantic-type="number" data-semantic-role="integer" data-semantic-font="normal" data-semantic-annotation="clearspeak:simple;depth:7" data-semantic-id="14" data-semantic-parent="15" data-semantic-attributes="latex:2" aria-level="6" data-speech-node="true"><use data-c="32" xlink:href="#MJX-9-NCM-N-32" xmlns:xlink="http://www.w3.org/1999/xlink"/></g></g><g data-mml-node="mo" data-latex="+" data-semantic-type="operator" data-semantic-role="addition" data-semantic-annotation="depth:6" data-semantic-id="16" data-semantic-parent="18" data-semantic-attributes="latex:+" data-semantic-operator="infixop,+" aria-level="5" data-speech-node="true" transform="translate(1536.8,0)"><use data-c="2B" xlink:href="#MJX-9-NCM-N-2B" xmlns:xlink="http://www.w3.org/1999/xlink"/></g><g data-mml-node="mn" data-latex="1" data-semantic-type="number" data-semantic-role="integer" data-semantic-font="normal" data-semantic-annotation="clearspeak:simple;depth:6" data-semantic-id="17" data-semantic-parent="18" data-semantic-attributes="latex:1" aria-level="5" data-speech-node="true" transform="translate(2537,0)"><use data-c="31" xlink:href="#MJX-9-NCM-N-31" xmlns:xlink="http://www.w3.org/1999/xlink"/></g></g><rect width="3237" height="60" x="120" y="220"/></g><g data-mml-node="mo" data-latex="," data-semantic-type="punctuation" data-semantic-role="comma" data-semantic-annotation="depth:4" data-semantic-id="20" data-semantic-parent="33" data-semantic-attributes="latex:," data-semantic-operator="punctuated" aria-level="3" data-speech-node="true" transform="translate(3477,0)"><use data-c="2C" xlink:href="#MJX-9-NCM-N-2C" xmlns:xlink="http://www.w3.org/1999/xlink"/></g><g data-mml-node="mfrac" data-latex="\frac{2m}{m^2+1}" data-semantic-type="fraction" data-semantic-role="division" data-semantic-annotation="depth:4" data-semantic-id="31" data-semantic-children="24,30" data-semantic-parent="33" data-semantic-attributes="latex:\frac{2m}{m^2+1}" data-semantic-owns="24 30" aria-level="3" data-speech-node="true" transform="translate(3921.7,0)"><g data-mml-node="mrow" data-latex="2m" data-semantic-type="infixop" data-semantic-role="implicit" data-semantic-annotation="clearspeak:simple;clearspeak:unit;depth:5" data-semantic-id="24" data-semantic-children="21,22" data-semantic-content="23" data-semantic-parent="31" data-semantic-attributes="latex:2m" data-semantic-owns="21 23 22" aria-level="4" data-speech-node="true" transform="translate(1049.5,676)"><g data-mml-node="mn" data-latex="2" data-semantic-type="number" data-semantic-role="integer" data-semantic-font="normal" data-semantic-annotation="clearspeak:simple;depth:6" data-semantic-id="21" data-semantic-parent="24" data-semantic-attributes="latex:2" aria-level="5" data-speech-node="true"><use data-c="32" xlink:href="#MJX-9-NCM-N-32" xmlns:xlink="http://www.w3.org/1999/xlink"/></g><g data-mml-node="mo" data-semantic-type="operator" data-semantic-role="multiplication" data-semantic-annotation="depth:6" data-semantic-id="23" data-semantic-parent="24" data-semantic-added="true" data-semantic-operator="infixop,⁢" aria-level="5" data-speech-node="true" transform="translate(500,0)"><use data-c="2062" xlink:href="#MJX-9-NCM-N-2062" xmlns:xlink="http://www.w3.org/1999/xlink"/></g><g data-mml-node="mi" data-latex="m" data-semantic-type="identifier" data-semantic-role="latinletter" data-semantic-font="italic" data-semantic-annotation="clearspeak:simple;depth:6" data-semantic-id="22" data-semantic-parent="24" data-semantic-attributes="latex:m" aria-level="5" data-speech-node="true" transform="translate(500,0)"><use data-c="1D45A" xlink:href="#MJX-9-NCM-I-1D45A" xmlns:xlink="http://www.w3.org/1999/xlink"/></g></g><g data-mml-node="mrow" data-latex="m^2 +1" data-semantic-type="infixop" data-semantic-role="addition" data-semantic-annotation="depth:5" data-semantic-id="30" data-semantic-children="27,29" data-semantic-content="28" data-semantic-parent="31" data-semantic-attributes="latex:m^2 +1" data-semantic-owns="27 28 29" aria-level="4" data-speech-node="true" transform="translate(220,-719.9)"><g data-mml-node="msup" data-latex="m^2" data-semantic-type="superscript" data-semantic-role="latinletter" data-semantic-annotation="depth:6" data-semantic-id="27" data-semantic-children="25,26" data-semantic-parent="30" data-semantic-attributes="latex:m^2" data-semantic-owns="25 26" aria-level="5" data-speech-node="true"><g data-mml-node="mi" data-latex="m" data-semantic-type="identifier" data-semantic-role="latinletter" data-semantic-font="italic" data-semantic-annotation="clearspeak:simple;depth:7" data-semantic-id="25" data-semantic-parent="27" data-semantic-attributes="latex:m" aria-level="6" data-speech-node="true"><use data-c="1D45A" xlink:href="#MJX-9-NCM-I-1D45A" xmlns:xlink="http://www.w3.org/1999/xlink"/></g><g data-mml-node="mn" transform="translate(911,289) scale(0.707)" data-latex="2" data-semantic-type="number" data-semantic-role="integer" data-semantic-font="normal" data-semantic-annotation="clearspeak:simple;depth:7" data-semantic-id="26" data-semantic-parent="27" data-semantic-attributes="latex:2" aria-level="6" data-speech-node="true"><use data-c="32" xlink:href="#MJX-9-NCM-N-32" xmlns:xlink="http://www.w3.org/1999/xlink"/></g></g><g data-mml-node="mo" data-latex="+" data-semantic-type="operator" data-semantic-role="addition" data-semantic-annotation="depth:6" data-semantic-id="28" data-semantic-parent="30" data-semantic-attributes="latex:+" data-semantic-operator="infixop,+" aria-level="5" data-speech-node="true" transform="translate(1536.8,0)"><use data-c="2B" xlink:href="#MJX-9-NCM-N-2B" xmlns:xlink="http://www.w3.org/1999/xlink"/></g><g data-mml-node="mn" data-latex="1" data-semantic-type="number" data-semantic-role="integer" data-semantic-font="normal" data-semantic-annotation="clearspeak:simple;depth:6" data-semantic-id="29" data-semantic-parent="30" data-semantic-attributes="latex:1" aria-level="5" data-speech-node="true" transform="translate(2537,0)"><use data-c="31" xlink:href="#MJX-9-NCM-N-31" xmlns:xlink="http://www.w3.org/1999/xlink"/></g></g><rect width="3237" height="60" x="120" y="220"/></g></g><g data-mml-node="mo" data-mjx-texclass="CLOSE" data-latex-item="\right)" data-latex="\right)" data-semantic-type="fence" data-semantic-role="close" data-semantic-annotation="depth:3" data-semantic-id="32" data-semantic-parent="34" data-semantic-attributes="latex:\right);texclass:CLOSE" data-semantic-operator="fenced" aria-level="2" data-speech-node="true" transform="translate(8134.7,0)"><use data-c="29" xlink:href="#MJX-9-NCM-S6-29" xmlns:xlink="http://www.w3.org/1999/xlink"/></g></g></g></g></svg>
