<svg xmlns="http://www.w3.org/2000/svg" viewBox="0 9.470000267028809 116.23999786376953 36.37999725341797" data-asc="0.9052734375" width="116.23999786376953" height="36.37999725341797"><defs/><g fill="#000000"><g transform="translate(0, 0)"><path d="M0 45.26L0 9.47L25.88 9.47L25.88 13.70L4.74 13.70L4.74 24.66L24.54 24.66L24.54 28.86L4.74 28.86L4.74 41.04L26.71 41.04L26.71 45.26L0 45.26ZM32.69 45.26L32.69 19.34L36.65 19.34L36.65 23.02Q39.50 18.75 44.90 18.75Q47.24 18.75 49.21 19.59Q51.17 20.43 52.15 21.80Q53.13 23.17 53.52 25.05Q53.76 26.27 53.76 29.32L53.76 45.26L49.37 45.26L49.37 29.49Q49.37 26.81 48.85 25.48Q48.34 24.15 47.03 23.35Q45.73 22.56 43.97 22.56Q41.16 22.56 39.12 24.34Q37.08 26.12 37.08 31.10L37.08 45.26L32.69 45.26ZM70.09 41.33L70.73 45.21Q68.87 45.61 67.41 45.61Q65.01 45.61 63.70 44.85Q62.38 44.09 61.84 42.86Q61.30 41.63 61.30 37.67L61.30 22.75L58.08 22.75L58.08 19.34L61.30 19.34L61.30 12.92L65.67 10.28L65.67 19.34L70.09 19.34L70.09 22.75L65.67 22.75L65.67 37.92Q65.67 39.79 65.91 40.33Q66.14 40.87 66.66 41.19Q67.19 41.50 68.16 41.50Q68.90 41.50 70.09 41.33ZM92.14 36.91L96.68 37.48Q95.61 41.46 92.70 43.65Q89.79 45.85 85.28 45.85Q79.59 45.85 76.26 42.35Q72.92 38.84 72.92 32.52Q72.92 25.98 76.29 22.36Q79.66 18.75 85.03 18.75Q90.23 18.75 93.53 22.29Q96.83 25.83 96.83 32.25Q96.83 32.64 96.80 33.42L77.47 33.42Q77.71 37.70 79.88 39.97Q82.06 42.24 85.30 42.24Q87.72 42.24 89.43 40.97Q91.14 39.70 92.14 36.91M77.71 29.81L92.19 29.81Q91.89 26.54 90.53 24.90Q88.43 22.36 85.08 22.36Q82.06 22.36 79.99 24.39Q77.93 26.42 77.71 29.81ZM102.15 45.26L102.15 19.34L106.10 19.34L106.10 23.27Q107.62 20.51 108.90 19.63Q110.18 18.75 111.72 18.75Q113.94 18.75 116.24 20.17L114.72 24.24Q113.11 23.29 111.50 23.29Q110.06 23.29 108.91 24.16Q107.76 25.02 107.28 26.56Q106.54 28.91 106.54 31.69L106.54 45.26L102.15 45.26Z"/></g></g></svg>