<svg xmlns="http://www.w3.org/2000/svg" viewBox="0 8.859999656677246 1028.3199462890625 46.93000030517578" data-asc="0.9052734375" width="1028.3199462890625" height="46.93000030517578"><defs/><g fill="#000000"><g transform="translate(0, 0)"><path d="M0 45.26L0 9.47L25.88 9.47L25.88 13.70L4.74 13.70L4.74 24.66L24.54 24.66L24.54 28.86L4.74 28.86L4.74 41.04L26.71 41.04L26.71 45.26L0 45.26ZM32.69 45.26L32.69 19.34L36.65 19.34L36.65 23.02Q39.50 18.75 44.90 18.75Q47.24 18.75 49.21 19.59Q51.17 20.43 52.15 21.80Q53.13 23.17 53.52 25.05Q53.76 26.27 53.76 29.32L53.76 45.26L49.37 45.26L49.37 29.49Q49.37 26.81 48.85 25.48Q48.34 24.15 47.03 23.35Q45.73 22.56 43.97 22.56Q41.16 22.56 39.12 24.34Q37.08 26.12 37.08 31.10L37.08 45.26L32.69 45.26ZM70.09 41.33L70.73 45.21Q68.87 45.61 67.41 45.61Q65.01 45.61 63.70 44.85Q62.38 44.09 61.84 42.86Q61.30 41.63 61.30 37.67L61.30 22.75L58.08 22.75L58.08 19.34L61.30 19.34L61.30 12.92L65.67 10.28L65.67 19.34L70.09 19.34L70.09 22.75L65.67 22.75L65.67 37.92Q65.67 39.79 65.91 40.33Q66.14 40.87 66.66 41.19Q67.19 41.50 68.16 41.50Q68.90 41.50 70.09 41.33ZM92.14 36.91L96.68 37.48Q95.61 41.46 92.70 43.65Q89.79 45.85 85.28 45.85Q79.59 45.85 76.26 42.35Q72.92 38.84 72.92 32.52Q72.92 25.98 76.29 22.36Q79.66 18.75 85.03 18.75Q90.23 18.75 93.53 22.29Q96.83 25.83 96.83 32.25Q96.83 32.64 96.80 33.42L77.47 33.42Q77.71 37.70 79.88 39.97Q82.06 42.24 85.30 42.24Q87.72 42.24 89.43 40.97Q91.14 39.70 92.14 36.91M77.71 29.81L92.19 29.81Q91.89 26.54 90.53 24.90Q88.43 22.36 85.08 22.36Q82.06 22.36 79.99 24.39Q77.93 26.42 77.71 29.81ZM102.15 45.26L102.15 19.34L106.10 19.34L106.10 23.27Q107.62 20.51 108.90 19.63Q110.18 18.75 111.72 18.75Q113.94 18.75 116.24 20.17L114.72 24.24Q113.11 23.29 111.50 23.29Q110.06 23.29 108.91 24.16Q107.76 25.02 107.28 26.56Q106.54 28.91 106.54 31.69L106.54 45.26L102.15 45.26ZM132.54 55.25L132.06 51.12Q133.50 51.51 134.57 51.51Q136.04 51.51 136.91 51.03Q137.79 50.54 138.35 49.66Q138.77 49.00 139.70 46.39Q139.82 46.02 140.09 45.31L130.25 19.34L134.99 19.34L140.38 34.35Q141.43 37.21 142.26 40.36Q143.02 37.33 144.07 34.45L149.61 19.34L154.00 19.34L144.14 45.70Q142.55 49.98 141.67 51.59Q140.50 53.76 138.99 54.77Q137.48 55.79 135.38 55.79Q134.11 55.79 132.54 55.25ZM156.10 32.30Q156.10 25.10 160.11 21.63Q163.45 18.75 168.26 18.75Q173.61 18.75 177.00 22.25Q180.40 25.76 180.40 31.93Q180.40 36.94 178.89 39.81Q177.39 42.68 174.52 44.26Q171.66 45.85 168.26 45.85Q162.82 45.85 159.46 42.36Q156.10 38.87 156.10 32.30M160.62 32.30Q160.62 37.28 162.79 39.76Q164.97 42.24 168.26 42.24Q171.53 42.24 173.71 39.75Q175.88 37.26 175.88 32.15Q175.88 27.34 173.69 24.87Q171.51 22.39 168.26 22.39Q164.97 22.39 162.79 24.85Q160.62 27.32 160.62 32.30ZM202.54 45.26L202.54 41.46Q199.51 45.85 194.31 45.85Q192.02 45.85 190.03 44.97Q188.04 44.09 187.07 42.76Q186.11 41.43 185.72 39.50Q185.45 38.21 185.45 35.40L185.45 19.34L189.84 19.34L189.84 33.72Q189.84 37.16 190.11 38.35Q190.53 40.09 191.87 41.08Q193.21 42.07 195.19 42.07Q197.17 42.07 198.90 41.05Q200.63 40.04 201.35 38.29Q202.08 36.55 202.08 33.23L202.08 19.34L206.47 19.34L206.47 45.26L202.54 45.26ZM213.31 45.26L213.31 19.34L217.26 19.34L217.26 23.27Q218.77 20.51 220.06 19.63Q221.34 18.75 222.88 18.75Q225.10 18.75 227.39 20.17L225.88 24.24Q224.27 23.29 222.66 23.29Q221.22 23.29 220.07 24.16Q218.92 25.02 218.43 26.56Q217.70 28.91 217.70 31.69L217.70 45.26L213.31 45.26ZM253.49 41.33L254.13 45.21Q252.27 45.61 250.81 45.61Q248.41 45.61 247.09 44.85Q245.78 44.09 245.24 42.86Q244.70 41.63 244.70 37.67L244.70 22.75L241.48 22.75L241.48 19.34L244.70 19.34L244.70 12.92L249.07 10.28L249.07 19.34L253.49 19.34L253.49 22.75L249.07 22.75L249.07 37.92Q249.07 39.79 249.30 40.33Q249.54 40.87 250.06 41.19Q250.59 41.50 251.56 41.50Q252.29 41.50 253.49 41.33ZM275.54 36.91L280.08 37.48Q279.00 41.46 276.10 43.65Q273.19 45.85 268.68 45.85Q262.99 45.85 259.66 42.35Q256.32 38.84 256.32 32.52Q256.32 25.98 259.69 22.36Q263.06 18.75 268.43 18.75Q273.63 18.75 276.93 22.29Q280.22 25.83 280.22 32.25Q280.22 32.64 280.20 33.42L260.86 33.42Q261.11 37.70 263.28 39.97Q265.45 42.24 268.70 42.24Q271.12 42.24 272.83 40.97Q274.54 39.70 275.54 36.91M261.11 29.81L275.59 29.81Q275.29 26.54 273.93 24.90Q271.83 22.36 268.48 22.36Q265.45 22.36 263.39 24.39Q261.33 26.42 261.11 29.81ZM282.67 45.26L292.14 31.79L283.37 19.34L288.87 19.34L292.85 25.42Q293.97 27.15 294.65 28.32Q295.73 26.71 296.63 25.46L301.00 19.34L306.25 19.34L297.29 31.54L306.93 45.26L301.54 45.26L296.22 37.21L294.80 35.03L287.99 45.26L282.67 45.26ZM320.19 41.33L320.83 45.21Q318.97 45.61 317.50 45.61Q315.11 45.61 313.79 44.85Q312.48 44.09 311.94 42.86Q311.40 41.63 311.40 37.67L311.40 22.75L308.18 22.75L308.18 19.34L311.40 19.34L311.40 12.92L315.77 10.28L315.77 19.34L320.19 19.34L320.19 22.75L315.77 22.75L315.77 37.92Q315.77 39.79 316.00 40.33Q316.24 40.87 316.76 41.19Q317.29 41.50 318.26 41.50Q318.99 41.50 320.19 41.33ZM338.38 45.26L338.38 9.47L342.77 9.47L342.77 22.31Q345.85 18.75 350.54 18.75Q353.42 18.75 355.54 19.89Q357.67 21.02 358.58 23.02Q359.50 25.02 359.50 28.83L359.50 45.26L355.10 45.26L355.10 28.83Q355.10 25.54 353.67 24.04Q352.25 22.53 349.63 22.53Q347.68 22.53 345.96 23.55Q344.24 24.56 343.51 26.29Q342.77 28.03 342.77 31.08L342.77 45.26L338.38 45.26ZM383.94 36.91L388.48 37.48Q387.40 41.46 384.50 43.65Q381.59 45.85 377.08 45.85Q371.39 45.85 368.05 42.35Q364.72 38.84 364.72 32.52Q364.72 25.98 368.09 22.36Q371.46 18.75 376.83 18.75Q382.03 18.75 385.33 22.29Q388.62 25.83 388.62 32.25Q388.62 32.64 388.60 33.42L369.26 33.42Q369.51 37.70 371.68 39.97Q373.85 42.24 377.10 42.24Q379.52 42.24 381.23 40.97Q382.93 39.70 383.94 36.91M369.51 29.81L383.98 29.81Q383.69 26.54 382.32 24.90Q380.22 22.36 376.88 22.36Q373.85 22.36 371.79 24.39Q369.73 26.42 369.51 29.81ZM393.95 45.26L393.95 19.34L397.90 19.34L397.90 23.27Q399.41 20.51 400.70 19.63Q401.98 18.75 403.52 18.75Q405.74 18.75 408.03 20.17L406.52 24.24Q404.91 23.29 403.30 23.29Q401.86 23.29 400.71 24.16Q399.56 25.02 399.07 26.56Q398.34 28.91 398.34 31.69L398.34 45.26L393.95 45.26ZM428.39 36.91L432.93 37.48Q431.86 41.46 428.96 43.65Q426.05 45.85 421.53 45.85Q415.84 45.85 412.51 42.35Q409.18 38.84 409.18 32.52Q409.18 25.98 412.55 22.36Q415.92 18.75 421.29 18.75Q426.49 18.75 429.79 22.29Q433.08 25.83 433.08 32.25Q433.08 32.64 433.06 33.42L413.72 33.42Q413.96 37.70 416.14 39.97Q418.31 42.24 421.56 42.24Q423.97 42.24 425.68 40.97Q427.39 39.70 428.39 36.91M413.96 29.81L428.44 29.81Q428.15 26.54 426.78 24.90Q424.68 22.36 421.34 22.36Q418.31 22.36 416.25 24.39Q414.18 26.42 413.96 29.81ZM461.94 41.33L462.57 45.21Q460.72 45.61 459.25 45.61Q456.86 45.61 455.54 44.85Q454.22 44.09 453.69 42.86Q453.15 41.63 453.15 37.67L453.15 22.75L449.93 22.75L449.93 19.34L453.15 19.34L453.15 12.92L457.52 10.28L457.52 19.34L461.94 19.34L461.94 22.75L457.52 22.75L457.52 37.92Q457.52 39.79 457.75 40.33Q457.98 40.87 458.51 41.19Q459.03 41.50 460.01 41.50Q460.74 41.50 461.94 41.33ZM464.60 32.30Q464.60 25.10 468.60 21.63Q471.95 18.75 476.76 18.75Q482.10 18.75 485.50 22.25Q488.89 25.76 488.89 31.93Q488.89 36.94 487.39 39.81Q485.89 42.68 483.02 44.26Q480.15 45.85 476.76 45.85Q471.31 45.85 467.96 42.36Q464.60 38.87 464.60 32.30M469.12 32.30Q469.12 37.28 471.29 39.76Q473.46 42.24 476.76 42.24Q480.03 42.24 482.20 39.75Q484.38 37.26 484.38 32.15Q484.38 27.34 482.19 24.87Q480.00 22.39 476.76 22.39Q473.46 22.39 471.29 24.85Q469.12 27.32 469.12 32.30ZM524.85 35.77L529.17 36.33Q528.47 40.80 525.55 43.32Q522.63 45.85 518.38 45.85Q513.06 45.85 509.83 42.37Q506.59 38.89 506.59 32.40Q506.59 28.20 507.98 25.05Q509.38 21.90 512.22 20.32Q515.06 18.75 518.41 18.75Q522.63 18.75 525.32 20.89Q528.00 23.02 528.76 26.95L524.49 27.61Q523.88 25 522.33 23.68Q520.78 22.36 518.58 22.36Q515.26 22.36 513.18 24.74Q511.11 27.12 511.11 32.28Q511.11 37.50 513.11 39.87Q515.11 42.24 518.33 42.24Q520.92 42.24 522.66 40.65Q524.39 39.06 524.85 35.77ZM531.30 32.30Q531.30 25.10 535.30 21.63Q538.65 18.75 543.46 18.75Q548.80 18.75 552.20 22.25Q555.59 25.76 555.59 31.93Q555.59 36.94 554.09 39.81Q552.59 42.68 549.72 44.26Q546.85 45.85 543.46 45.85Q538.01 45.85 534.66 42.36Q531.30 38.87 531.30 32.30M535.82 32.30Q535.82 37.28 537.99 39.76Q540.16 42.24 543.46 42.24Q546.73 42.24 548.90 39.75Q551.07 37.26 551.07 32.15Q551.07 27.34 548.89 24.87Q546.70 22.39 543.46 22.39Q540.16 22.39 537.99 24.85Q535.82 27.32 535.82 32.30ZM560.74 45.26L560.74 19.34L564.70 19.34L564.70 23.02Q567.55 18.75 572.95 18.75Q575.29 18.75 577.26 19.59Q579.22 20.43 580.20 21.80Q581.18 23.17 581.57 25.05Q581.81 26.27 581.81 29.32L581.81 45.26L577.42 45.26L577.42 29.49Q577.42 26.81 576.90 25.48Q576.39 24.15 575.09 23.35Q573.78 22.56 572.02 22.56Q569.21 22.56 567.18 24.34Q565.14 26.12 565.14 31.10L565.14 45.26L560.74 45.26ZM595.75 45.26L585.89 19.34L590.53 19.34L596.09 34.86Q597.00 37.38 597.75 40.09Q598.34 38.04 599.39 35.16L605.15 19.34L609.67 19.34L599.85 45.26L595.75 45.26ZM631.30 36.91L635.84 37.48Q634.77 41.46 631.86 43.65Q628.96 45.85 624.44 45.85Q618.75 45.85 615.42 42.35Q612.08 38.84 612.08 32.52Q612.08 25.98 615.45 22.36Q618.82 18.75 624.19 18.75Q629.39 18.75 632.69 22.29Q635.99 25.83 635.99 32.25Q635.99 32.64 635.96 33.42L616.63 33.42Q616.87 37.70 619.04 39.97Q621.22 42.24 624.46 42.24Q626.88 42.24 628.59 40.97Q630.30 39.70 631.30 36.91M616.87 29.81L631.35 29.81Q631.05 26.54 629.69 24.90Q627.59 22.36 624.24 22.36Q621.22 22.36 619.15 24.39Q617.09 26.42 616.87 29.81ZM641.31 45.26L641.31 19.34L645.26 19.34L645.26 23.27Q646.78 20.51 648.06 19.63Q649.34 18.75 650.88 18.75Q653.10 18.75 655.40 20.17L653.88 24.24Q652.27 23.29 650.66 23.29Q649.22 23.29 648.07 24.16Q646.92 25.02 646.44 26.56Q645.70 28.91 645.70 31.69L645.70 45.26L641.31 45.26ZM667.60 41.33L668.24 45.21Q666.38 45.61 664.92 45.61Q662.52 45.61 661.21 44.85Q659.89 44.09 659.35 42.86Q658.81 41.63 658.81 37.67L658.81 22.75L655.59 22.75L655.59 19.34L658.81 19.34L658.81 12.92L663.18 10.28L663.18 19.34L667.60 19.34L667.60 22.75L663.18 22.75L663.18 37.92Q663.18 39.79 663.42 40.33Q663.65 40.87 664.17 41.19Q664.70 41.50 665.67 41.50Q666.41 41.50 667.60 41.33ZM685.82 14.53L685.82 9.47L690.21 9.47L690.21 14.53L685.82 14.53M685.82 45.26L685.82 19.34L690.21 19.34L690.21 45.26L685.82 45.26ZM706.49 41.33L707.13 45.21Q705.27 45.61 703.81 45.61Q701.42 45.61 700.10 44.85Q698.78 44.09 698.24 42.86Q697.71 41.63 697.71 37.67L697.71 22.75L694.48 22.75L694.48 19.34L697.71 19.34L697.71 12.92L702.08 10.28L702.08 19.34L706.49 19.34L706.49 22.75L702.08 22.75L702.08 37.92Q702.08 39.79 702.31 40.33Q702.54 40.87 703.06 41.19Q703.59 41.50 704.57 41.50Q705.30 41.50 706.49 41.33ZM734.28 41.33L734.91 45.21Q733.06 45.61 731.59 45.61Q729.20 45.61 727.88 44.85Q726.56 44.09 726.03 42.86Q725.49 41.63 725.49 37.67L725.49 22.75L722.27 22.75L722.27 19.34L725.49 19.34L725.49 12.92L729.86 10.28L729.86 19.34L734.28 19.34L734.28 22.75L729.86 22.75L729.86 37.92Q729.86 39.79 730.09 40.33Q730.32 40.87 730.85 41.19Q731.37 41.50 732.35 41.50Q733.08 41.50 734.28 41.33ZM736.94 32.30Q736.94 25.10 740.94 21.63Q744.29 18.75 749.10 18.75Q754.44 18.75 757.84 22.25Q761.23 25.76 761.23 31.93Q761.23 36.94 759.73 39.81Q758.23 42.68 755.36 44.26Q752.49 45.85 749.10 45.85Q743.65 45.85 740.30 42.36Q736.94 38.87 736.94 32.30M741.46 32.30Q741.46 37.28 743.63 39.76Q745.80 42.24 749.10 42.24Q752.37 42.24 754.54 39.75Q756.71 37.26 756.71 32.15Q756.71 27.34 754.53 24.87Q752.34 22.39 749.10 22.39Q745.80 22.39 743.63 24.85Q741.46 27.32 741.46 32.30ZM779.22 33.76L783.69 33.37Q784.01 36.06 785.17 37.78Q786.33 39.50 788.77 40.56Q791.21 41.63 794.26 41.63Q796.97 41.63 799.05 40.82Q801.12 40.01 802.14 38.61Q803.15 37.21 803.15 35.55Q803.15 33.86 802.17 32.60Q801.20 31.35 798.95 30.49Q797.51 29.93 792.58 28.75Q787.65 27.56 785.67 26.51Q783.11 25.17 781.85 23.18Q780.59 21.19 780.59 18.73Q780.59 16.02 782.13 13.66Q783.67 11.30 786.62 10.08Q789.58 8.86 793.19 8.86Q797.17 8.86 800.21 10.14Q803.25 11.43 804.88 13.92Q806.52 16.41 806.64 19.56L802.10 19.90Q801.73 16.50 799.62 14.77Q797.51 13.04 793.38 13.04Q789.09 13.04 787.12 14.61Q785.16 16.19 785.16 18.41Q785.16 20.34 786.55 21.58Q787.92 22.83 793.69 24.13Q799.46 25.44 801.61 26.42Q804.74 27.86 806.23 30.07Q807.71 32.28 807.71 35.16Q807.71 38.01 806.08 40.54Q804.44 43.07 801.38 44.47Q798.32 45.87 794.48 45.87Q789.62 45.87 786.34 44.46Q783.06 43.04 781.19 40.20Q779.32 37.35 779.22 33.76ZM824.41 45.26L810.55 9.47L815.67 9.47L824.98 35.47Q826.10 38.60 826.86 41.33Q827.69 38.40 828.78 35.47L838.45 9.47L843.29 9.47L829.27 45.26L824.41 45.26ZM864.28 31.23L864.28 27.03L879.44 27.00L879.44 40.28Q875.95 43.07 872.24 44.47Q868.53 45.87 864.62 45.87Q859.35 45.87 855.04 43.62Q850.73 41.36 848.54 37.08Q846.34 32.81 846.34 27.54Q846.34 22.31 848.52 17.79Q850.71 13.26 854.81 11.06Q858.91 8.86 864.26 8.86Q868.14 8.86 871.28 10.12Q874.41 11.38 876.20 13.62Q877.98 15.87 878.91 19.48L874.63 20.65Q873.83 17.92 872.63 16.36Q871.44 14.79 869.21 13.85Q866.99 12.92 864.28 12.92Q861.04 12.92 858.67 13.90Q856.30 14.89 854.85 16.50Q853.39 18.12 852.59 20.04Q851.22 23.36 851.22 27.25Q851.22 32.03 852.87 35.25Q854.52 38.48 857.67 40.04Q860.82 41.60 864.36 41.60Q867.43 41.60 870.36 40.42Q873.29 39.23 874.80 37.89L874.80 31.23L864.28 31.23ZM899.76 55.20L899.76 19.34L903.76 19.34L903.76 22.71Q905.18 20.73 906.96 19.74Q908.74 18.75 911.28 18.75Q914.60 18.75 917.14 20.46Q919.68 22.17 920.97 25.28Q922.27 28.39 922.27 32.10Q922.27 36.08 920.84 39.27Q919.41 42.46 916.69 44.15Q913.96 45.85 910.96 45.85Q908.76 45.85 907.02 44.92Q905.27 43.99 904.15 42.58L904.15 55.20L899.76 55.20M903.74 32.45Q903.74 37.45 905.76 39.84Q907.79 42.24 910.67 42.24Q913.60 42.24 915.69 39.76Q917.77 37.28 917.77 32.08Q917.77 27.12 915.73 24.66Q913.70 22.19 910.86 22.19Q908.06 22.19 905.90 24.82Q903.74 27.44 903.74 32.45ZM944.48 42.07Q942.04 44.14 939.78 45.00Q937.52 45.85 934.94 45.85Q930.66 45.85 928.37 43.76Q926.07 41.67 926.07 38.43Q926.07 36.52 926.94 34.95Q927.81 33.37 929.21 32.42Q930.62 31.47 932.37 30.98Q933.67 30.64 936.28 30.32Q941.60 29.69 944.12 28.81Q944.14 27.91 944.14 27.66Q944.14 24.98 942.90 23.88Q941.21 22.39 937.89 22.39Q934.79 22.39 933.31 23.47Q931.84 24.56 931.13 27.32L926.83 26.73Q927.42 23.97 928.76 22.28Q930.10 20.58 932.64 19.67Q935.18 18.75 938.53 18.75Q941.85 18.75 943.92 19.53Q946.00 20.31 946.97 21.50Q947.95 22.68 948.34 24.49Q948.56 25.61 948.56 28.54L948.56 34.40Q948.56 40.53 948.84 42.15Q949.12 43.77 949.95 45.26L945.36 45.26Q944.68 43.90 944.48 42.07M944.12 32.25Q941.72 33.23 936.94 33.91Q934.23 34.30 933.11 34.79Q931.98 35.28 931.37 36.22Q930.76 37.16 930.76 38.31Q930.76 40.06 932.09 41.24Q933.42 42.41 935.99 42.41Q938.53 42.41 940.50 41.30Q942.48 40.19 943.41 38.26Q944.12 36.77 944.12 33.86L944.12 32.25ZM964.97 41.33L965.60 45.21Q963.75 45.61 962.28 45.61Q959.89 45.61 958.57 44.85Q957.25 44.09 956.71 42.86Q956.18 41.63 956.18 37.67L956.18 22.75L952.95 22.75L952.95 19.34L956.18 19.34L956.18 12.92L960.55 10.28L960.55 19.34L964.97 19.34L964.97 22.75L960.55 22.75L960.55 37.92Q960.55 39.79 960.78 40.33Q961.01 40.87 961.54 41.19Q962.06 41.50 963.04 41.50Q963.77 41.50 964.97 41.33ZM969.26 45.26L969.26 9.47L973.66 9.47L973.66 22.31Q976.73 18.75 981.42 18.75Q984.30 18.75 986.43 19.89Q988.55 21.02 989.47 23.02Q990.38 25.02 990.38 28.83L990.38 45.26L985.99 45.26L985.99 28.83Q985.99 25.54 984.56 24.04Q983.13 22.53 980.52 22.53Q978.56 22.53 976.84 23.55Q975.12 24.56 974.39 26.29Q973.66 28.03 973.66 31.08L973.66 45.26L969.26 45.26ZM995.31 37.52L999.66 36.84Q1000.02 39.45 1001.70 40.84Q1003.37 42.24 1006.37 42.24Q1009.40 42.24 1010.86 41.00Q1012.33 39.77 1012.33 38.11Q1012.33 36.62 1011.04 35.77Q1010.13 35.18 1006.54 34.28Q1001.71 33.06 999.84 32.17Q997.97 31.27 997.01 29.70Q996.04 28.13 996.04 26.22Q996.04 24.49 996.84 23.01Q997.63 21.53 999.00 20.56Q1000.02 19.80 1001.79 19.27Q1003.56 18.75 1005.59 18.75Q1008.64 18.75 1010.95 19.63Q1013.26 20.51 1014.36 22.01Q1015.45 23.51 1015.87 26.03L1011.57 26.61Q1011.28 24.61 1009.88 23.49Q1008.47 22.36 1005.91 22.36Q1002.88 22.36 1001.59 23.36Q1000.29 24.37 1000.29 25.71Q1000.29 26.56 1000.83 27.25Q1001.37 27.95 1002.51 28.42Q1003.17 28.66 1006.40 29.54Q1011.06 30.79 1012.90 31.58Q1014.75 32.37 1015.80 33.89Q1016.85 35.40 1016.85 37.65Q1016.85 39.84 1015.56 41.78Q1014.28 43.73 1011.87 44.79Q1009.45 45.85 1006.40 45.85Q1001.34 45.85 998.69 43.75Q996.04 41.65 995.31 37.52ZM1023.32 45.26L1023.32 40.26L1028.32 40.26L1028.32 45.26L1023.32 45.26Z"/></g></g></svg>