<svg xmlns="http://www.w3.org/2000/svg" viewBox="0 8.859999656677246 1103.6400146484375 285.8628234863281" data-asc="0.9052734375" width="1103.6400146484375" height="285.8628234863281"><defs/><g fill="#000000"><g transform="translate(0, 0)"><path d="M0 45.26L0 9.47L25.88 9.47L25.88 13.70L4.74 13.70L4.74 24.66L24.54 24.66L24.54 28.86L4.74 28.86L4.74 41.04L26.71 41.04L26.71 45.26L0 45.26ZM32.69 45.26L32.69 19.34L36.65 19.34L36.65 23.02Q39.50 18.75 44.90 18.75Q47.24 18.75 49.21 19.59Q51.17 20.43 52.15 21.80Q53.13 23.17 53.52 25.05Q53.76 26.27 53.76 29.32L53.76 45.26L49.37 45.26L49.37 29.49Q49.37 26.81 48.85 25.48Q48.34 24.15 47.03 23.35Q45.73 22.56 43.97 22.56Q41.16 22.56 39.12 24.34Q37.08 26.12 37.08 31.10L37.08 45.26L32.69 45.26ZM70.09 41.33L70.73 45.21Q68.87 45.61 67.41 45.61Q65.01 45.61 63.70 44.85Q62.38 44.09 61.84 42.86Q61.30 41.63 61.30 37.67L61.30 22.75L58.08 22.75L58.08 19.34L61.30 19.34L61.30 12.92L65.67 10.28L65.67 19.34L70.09 19.34L70.09 22.75L65.67 22.75L65.67 37.92Q65.67 39.79 65.91 40.33Q66.14 40.87 66.66 41.19Q67.19 41.50 68.16 41.50Q68.90 41.50 70.09 41.33ZM92.14 36.91L96.68 37.48Q95.61 41.46 92.70 43.65Q89.79 45.85 85.28 45.85Q79.59 45.85 76.26 42.35Q72.92 38.84 72.92 32.52Q72.92 25.98 76.29 22.36Q79.66 18.75 85.03 18.75Q90.23 18.75 93.53 22.29Q96.83 25.83 96.83 32.25Q96.83 32.64 96.80 33.42L77.47 33.42Q77.71 37.70 79.88 39.97Q82.06 42.24 85.30 42.24Q87.72 42.24 89.43 40.97Q91.14 39.70 92.14 36.91M77.71 29.81L92.19 29.81Q91.89 26.54 90.53 24.90Q88.43 22.36 85.08 22.36Q82.06 22.36 79.99 24.39Q77.93 26.42 77.71 29.81ZM102.15 45.26L102.15 19.34L106.10 19.34L106.10 23.27Q107.62 20.51 108.90 19.63Q110.18 18.75 111.72 18.75Q113.94 18.75 116.24 20.17L114.72 24.24Q113.11 23.29 111.50 23.29Q110.06 23.29 108.91 24.16Q107.76 25.02 107.28 26.56Q106.54 28.91 106.54 31.69L106.54 45.26L102.15 45.26ZM132.54 55.25L132.06 51.12Q133.50 51.51 134.57 51.51Q136.04 51.51 136.91 51.03Q137.79 50.54 138.35 49.66Q138.77 49.00 139.70 46.39Q139.82 46.02 140.09 45.31L130.25 19.34L134.99 19.34L140.38 34.35Q141.43 37.21 142.26 40.36Q143.02 37.33 144.07 34.45L149.61 19.34L154.00 19.34L144.14 45.70Q142.55 49.98 141.67 51.59Q140.50 53.76 138.99 54.77Q137.48 55.79 135.38 55.79Q134.11 55.79 132.54 55.25ZM156.10 32.30Q156.10 25.10 160.11 21.63Q163.45 18.75 168.26 18.75Q173.61 18.75 177.00 22.25Q180.40 25.76 180.40 31.93Q180.40 36.94 178.89 39.81Q177.39 42.68 174.52 44.26Q171.66 45.85 168.26 45.85Q162.82 45.85 159.46 42.36Q156.10 38.87 156.10 32.30M160.62 32.30Q160.62 37.28 162.79 39.76Q164.97 42.24 168.26 42.24Q171.53 42.24 173.71 39.75Q175.88 37.26 175.88 32.15Q175.88 27.34 173.69 24.87Q171.51 22.39 168.26 22.39Q164.97 22.39 162.79 24.85Q160.62 27.32 160.62 32.30ZM202.54 45.26L202.54 41.46Q199.51 45.85 194.31 45.85Q192.02 45.85 190.03 44.97Q188.04 44.09 187.07 42.76Q186.11 41.43 185.72 39.50Q185.45 38.21 185.45 35.40L185.45 19.34L189.84 19.34L189.84 33.72Q189.84 37.16 190.11 38.35Q190.53 40.09 191.87 41.08Q193.21 42.07 195.19 42.07Q197.17 42.07 198.90 41.05Q200.63 40.04 201.35 38.29Q202.08 36.55 202.08 33.23L202.08 19.34L206.47 19.34L206.47 45.26L202.54 45.26ZM213.31 45.26L213.31 19.34L217.26 19.34L217.26 23.27Q218.77 20.51 220.06 19.63Q221.34 18.75 222.88 18.75Q225.10 18.75 227.39 20.17L225.88 24.24Q224.27 23.29 222.66 23.29Q221.22 23.29 220.07 24.16Q218.92 25.02 218.43 26.56Q217.70 28.91 217.70 31.69L217.70 45.26L213.31 45.26ZM253.49 41.33L254.13 45.21Q252.27 45.61 250.81 45.61Q248.41 45.61 247.09 44.85Q245.78 44.09 245.24 42.86Q244.70 41.63 244.70 37.67L244.70 22.75L241.48 22.75L241.48 19.34L244.70 19.34L244.70 12.92L249.07 10.28L249.07 19.34L253.49 19.34L253.49 22.75L249.07 22.75L249.07 37.92Q249.07 39.79 249.30 40.33Q249.54 40.87 250.06 41.19Q250.59 41.50 251.56 41.50Q252.29 41.50 253.49 41.33ZM275.54 36.91L280.08 37.48Q279.00 41.46 276.10 43.65Q273.19 45.85 268.68 45.85Q262.99 45.85 259.66 42.35Q256.32 38.84 256.32 32.52Q256.32 25.98 259.69 22.36Q263.06 18.75 268.43 18.75Q273.63 18.75 276.93 22.29Q280.22 25.83 280.22 32.25Q280.22 32.64 280.20 33.42L260.86 33.42Q261.11 37.70 263.28 39.97Q265.45 42.24 268.70 42.24Q271.12 42.24 272.83 40.97Q274.54 39.70 275.54 36.91M261.11 29.81L275.59 29.81Q275.29 26.54 273.93 24.90Q271.83 22.36 268.48 22.36Q265.45 22.36 263.39 24.39Q261.33 26.42 261.11 29.81ZM282.67 45.26L292.14 31.79L283.37 19.34L288.87 19.34L292.85 25.42Q293.97 27.15 294.65 28.32Q295.73 26.71 296.63 25.46L301.00 19.34L306.25 19.34L297.29 31.54L306.93 45.26L301.54 45.26L296.22 37.21L294.80 35.03L287.99 45.26L282.67 45.26ZM320.19 41.33L320.83 45.21Q318.97 45.61 317.50 45.61Q315.11 45.61 313.79 44.85Q312.48 44.09 311.94 42.86Q311.40 41.63 311.40 37.67L311.40 22.75L308.18 22.75L308.18 19.34L311.40 19.34L311.40 12.92L315.77 10.28L315.77 19.34L320.19 19.34L320.19 22.75L315.77 22.75L315.77 37.92Q315.77 39.79 316.00 40.33Q316.24 40.87 316.76 41.19Q317.29 41.50 318.26 41.50Q318.99 41.50 320.19 41.33ZM338.38 45.26L338.38 9.47L342.77 9.47L342.77 22.31Q345.85 18.75 350.54 18.75Q353.42 18.75 355.54 19.89Q357.67 21.02 358.58 23.02Q359.50 25.02 359.50 28.83L359.50 45.26L355.10 45.26L355.10 28.83Q355.10 25.54 353.67 24.04Q352.25 22.53 349.63 22.53Q347.68 22.53 345.96 23.55Q344.24 24.56 343.51 26.29Q342.77 28.03 342.77 31.08L342.77 45.26L338.38 45.26ZM383.94 36.91L388.48 37.48Q387.40 41.46 384.50 43.65Q381.59 45.85 377.08 45.85Q371.39 45.85 368.05 42.35Q364.72 38.84 364.72 32.52Q364.72 25.98 368.09 22.36Q371.46 18.75 376.83 18.75Q382.03 18.75 385.33 22.29Q388.62 25.83 388.62 32.25Q388.62 32.64 388.60 33.42L369.26 33.42Q369.51 37.70 371.68 39.97Q373.85 42.24 377.10 42.24Q379.52 42.24 381.23 40.97Q382.93 39.70 383.94 36.91M369.51 29.81L383.98 29.81Q383.69 26.54 382.32 24.90Q380.22 22.36 376.88 22.36Q373.85 22.36 371.79 24.39Q369.73 26.42 369.51 29.81ZM393.95 45.26L393.95 19.34L397.90 19.34L397.90 23.27Q399.41 20.51 400.70 19.63Q401.98 18.75 403.52 18.75Q405.74 18.75 408.03 20.17L406.52 24.24Q404.91 23.29 403.30 23.29Q401.86 23.29 400.71 24.16Q399.56 25.02 399.07 26.56Q398.34 28.91 398.34 31.69L398.34 45.26L393.95 45.26ZM428.39 36.91L432.93 37.48Q431.86 41.46 428.96 43.65Q426.05 45.85 421.53 45.85Q415.84 45.85 412.51 42.35Q409.18 38.84 409.18 32.52Q409.18 25.98 412.55 22.36Q415.92 18.75 421.29 18.75Q426.49 18.75 429.79 22.29Q433.08 25.83 433.08 32.25Q433.08 32.64 433.06 33.42L413.72 33.42Q413.96 37.70 416.14 39.97Q418.31 42.24 421.56 42.24Q423.97 42.24 425.68 40.97Q427.39 39.70 428.39 36.91M413.96 29.81L428.44 29.81Q428.15 26.54 426.78 24.90Q424.68 22.36 421.34 22.36Q418.31 22.36 416.25 24.39Q414.18 26.42 413.96 29.81ZM461.94 41.33L462.57 45.21Q460.72 45.61 459.25 45.61Q456.86 45.61 455.54 44.85Q454.22 44.09 453.69 42.86Q453.15 41.63 453.15 37.67L453.15 22.75L449.93 22.75L449.93 19.34L453.15 19.34L453.15 12.92L457.52 10.28L457.52 19.34L461.94 19.34L461.94 22.75L457.52 22.75L457.52 37.92Q457.52 39.79 457.75 40.33Q457.98 40.87 458.51 41.19Q459.03 41.50 460.01 41.50Q460.74 41.50 461.94 41.33ZM464.60 32.30Q464.60 25.10 468.60 21.63Q471.95 18.75 476.76 18.75Q482.10 18.75 485.50 22.25Q488.89 25.76 488.89 31.93Q488.89 36.94 487.39 39.81Q485.89 42.68 483.02 44.26Q480.15 45.85 476.76 45.85Q471.31 45.85 467.96 42.36Q464.60 38.87 464.60 32.30M469.12 32.30Q469.12 37.28 471.29 39.76Q473.46 42.24 476.76 42.24Q480.03 42.24 482.20 39.75Q484.38 37.26 484.38 32.15Q484.38 27.34 482.19 24.87Q480.00 22.39 476.76 22.39Q473.46 22.39 471.29 24.85Q469.12 27.32 469.12 32.30ZM524.85 35.77L529.17 36.33Q528.47 40.80 525.55 43.32Q522.63 45.85 518.38 45.85Q513.06 45.85 509.83 42.37Q506.59 38.89 506.59 32.40Q506.59 28.20 507.98 25.05Q509.38 21.90 512.22 20.32Q515.06 18.75 518.41 18.75Q522.63 18.75 525.32 20.89Q528.00 23.02 528.76 26.95L524.49 27.61Q523.88 25 522.33 23.68Q520.78 22.36 518.58 22.36Q515.26 22.36 513.18 24.74Q511.11 27.12 511.11 32.28Q511.11 37.50 513.11 39.87Q515.11 42.24 518.33 42.24Q520.92 42.24 522.66 40.65Q524.39 39.06 524.85 35.77ZM531.30 32.30Q531.30 25.10 535.30 21.63Q538.65 18.75 543.46 18.75Q548.80 18.75 552.20 22.25Q555.59 25.76 555.59 31.93Q555.59 36.94 554.09 39.81Q552.59 42.68 549.72 44.26Q546.85 45.85 543.46 45.85Q538.01 45.85 534.66 42.36Q531.30 38.87 531.30 32.30M535.82 32.30Q535.82 37.28 537.99 39.76Q540.16 42.24 543.46 42.24Q546.73 42.24 548.90 39.75Q551.07 37.26 551.07 32.15Q551.07 27.34 548.89 24.87Q546.70 22.39 543.46 22.39Q540.16 22.39 537.99 24.85Q535.82 27.32 535.82 32.30ZM560.74 45.26L560.74 19.34L564.70 19.34L564.70 23.02Q567.55 18.75 572.95 18.75Q575.29 18.75 577.26 19.59Q579.22 20.43 580.20 21.80Q581.18 23.17 581.57 25.05Q581.81 26.27 581.81 29.32L581.81 45.26L577.42 45.26L577.42 29.49Q577.42 26.81 576.90 25.48Q576.39 24.15 575.09 23.35Q573.78 22.56 572.02 22.56Q569.21 22.56 567.18 24.34Q565.14 26.12 565.14 31.10L565.14 45.26L560.74 45.26ZM595.75 45.26L585.89 19.34L590.53 19.34L596.09 34.86Q597.00 37.38 597.75 40.09Q598.34 38.04 599.39 35.16L605.15 19.34L609.67 19.34L599.85 45.26L595.75 45.26ZM631.30 36.91L635.84 37.48Q634.77 41.46 631.86 43.65Q628.96 45.85 624.44 45.85Q618.75 45.85 615.42 42.35Q612.08 38.84 612.08 32.52Q612.08 25.98 615.45 22.36Q618.82 18.75 624.19 18.75Q629.39 18.75 632.69 22.29Q635.99 25.83 635.99 32.25Q635.99 32.64 635.96 33.42L616.63 33.42Q616.87 37.70 619.04 39.97Q621.22 42.24 624.46 42.24Q626.88 42.24 628.59 40.97Q630.30 39.70 631.30 36.91M616.87 29.81L631.35 29.81Q631.05 26.54 629.69 24.90Q627.59 22.36 624.24 22.36Q621.22 22.36 619.15 24.39Q617.09 26.42 616.87 29.81ZM641.31 45.26L641.31 19.34L645.26 19.34L645.26 23.27Q646.78 20.51 648.06 19.63Q649.34 18.75 650.88 18.75Q653.10 18.75 655.40 20.17L653.88 24.24Q652.27 23.29 650.66 23.29Q649.22 23.29 648.07 24.16Q646.92 25.02 646.44 26.56Q645.70 28.91 645.70 31.69L645.70 45.26L641.31 45.26ZM667.60 41.33L668.24 45.21Q666.38 45.61 664.92 45.61Q662.52 45.61 661.21 44.85Q659.89 44.09 659.35 42.86Q658.81 41.63 658.81 37.67L658.81 22.75L655.59 22.75L655.59 19.34L658.81 19.34L658.81 12.92L663.18 10.28L663.18 19.34L667.60 19.34L667.60 22.75L663.18 22.75L663.18 37.92Q663.18 39.79 663.42 40.33Q663.65 40.87 664.17 41.19Q664.70 41.50 665.67 41.50Q666.41 41.50 667.60 41.33ZM685.82 14.53L685.82 9.47L690.21 9.47L690.21 14.53L685.82 14.53M685.82 45.26L685.82 19.34L690.21 19.34L690.21 45.26L685.82 45.26ZM706.49 41.33L707.13 45.21Q705.27 45.61 703.81 45.61Q701.42 45.61 700.10 44.85Q698.78 44.09 698.24 42.86Q697.71 41.63 697.71 37.67L697.71 22.75L694.48 22.75L694.48 19.34L697.71 19.34L697.71 12.92L702.08 10.28L702.08 19.34L706.49 19.34L706.49 22.75L702.08 22.75L702.08 37.92Q702.08 39.79 702.31 40.33Q702.54 40.87 703.06 41.19Q703.59 41.50 704.57 41.50Q705.30 41.50 706.49 41.33ZM734.28 41.33L734.91 45.21Q733.06 45.61 731.59 45.61Q729.20 45.61 727.88 44.85Q726.56 44.09 726.03 42.86Q725.49 41.63 725.49 37.67L725.49 22.75L722.27 22.75L722.27 19.34L725.49 19.34L725.49 12.92L729.86 10.28L729.86 19.34L734.28 19.34L734.28 22.75L729.86 22.75L729.86 37.92Q729.86 39.79 730.09 40.33Q730.32 40.87 730.85 41.19Q731.37 41.50 732.35 41.50Q733.08 41.50 734.28 41.33ZM736.94 32.30Q736.94 25.10 740.94 21.63Q744.29 18.75 749.10 18.75Q754.44 18.75 757.84 22.25Q761.23 25.76 761.23 31.93Q761.23 36.94 759.73 39.81Q758.23 42.68 755.36 44.26Q752.49 45.85 749.10 45.85Q743.65 45.85 740.30 42.36Q736.94 38.87 736.94 32.30M741.46 32.30Q741.46 37.28 743.63 39.76Q745.80 42.24 749.10 42.24Q752.37 42.24 754.54 39.75Q756.71 37.26 756.71 32.15Q756.71 27.34 754.53 24.87Q752.34 22.39 749.10 22.39Q745.80 22.39 743.63 24.85Q741.46 27.32 741.46 32.30ZM779.22 33.76L783.69 33.37Q784.01 36.06 785.17 37.78Q786.33 39.50 788.77 40.56Q791.21 41.63 794.26 41.63Q796.97 41.63 799.05 40.82Q801.12 40.01 802.14 38.61Q803.15 37.21 803.15 35.55Q803.15 33.86 802.17 32.60Q801.20 31.35 798.95 30.49Q797.51 29.93 792.58 28.75Q787.65 27.56 785.67 26.51Q783.11 25.17 781.85 23.18Q780.59 21.19 780.59 18.73Q780.59 16.02 782.13 13.66Q783.67 11.30 786.62 10.08Q789.58 8.86 793.19 8.86Q797.17 8.86 800.21 10.14Q803.25 11.43 804.88 13.92Q806.52 16.41 806.64 19.56L802.10 19.90Q801.73 16.50 799.62 14.77Q797.51 13.04 793.38 13.04Q789.09 13.04 787.12 14.61Q785.16 16.19 785.16 18.41Q785.16 20.34 786.55 21.58Q787.92 22.83 793.69 24.13Q799.46 25.44 801.61 26.42Q804.74 27.86 806.23 30.07Q807.71 32.28 807.71 35.16Q807.71 38.01 806.08 40.54Q804.44 43.07 801.38 44.47Q798.32 45.87 794.48 45.87Q789.62 45.87 786.34 44.46Q783.06 43.04 781.19 40.20Q779.32 37.35 779.22 33.76ZM824.41 45.26L810.55 9.47L815.67 9.47L824.98 35.47Q826.10 38.60 826.86 41.33Q827.69 38.40 828.78 35.47L838.45 9.47L843.29 9.47L829.27 45.26L824.41 45.26ZM864.28 31.23L864.28 27.03L879.44 27.00L879.44 40.28Q875.95 43.07 872.24 44.47Q868.53 45.87 864.62 45.87Q859.35 45.87 855.04 43.62Q850.73 41.36 848.54 37.08Q846.34 32.81 846.34 27.54Q846.34 22.31 848.52 17.79Q850.71 13.26 854.81 11.06Q858.91 8.86 864.26 8.86Q868.14 8.86 871.28 10.12Q874.41 11.38 876.20 13.62Q877.98 15.87 878.91 19.48L874.63 20.65Q873.83 17.92 872.63 16.36Q871.44 14.79 869.21 13.85Q866.99 12.92 864.28 12.92Q861.04 12.92 858.67 13.90Q856.30 14.89 854.85 16.50Q853.39 18.12 852.59 20.04Q851.22 23.36 851.22 27.25Q851.22 32.03 852.87 35.25Q854.52 38.48 857.67 40.04Q860.82 41.60 864.36 41.60Q867.43 41.60 870.36 40.42Q873.29 39.23 874.80 37.89L874.80 31.23L864.28 31.23ZM899.76 55.20L899.76 19.34L903.76 19.34L903.76 22.71Q905.18 20.73 906.96 19.74Q908.74 18.75 911.28 18.75Q914.60 18.75 917.14 20.46Q919.68 22.17 920.97 25.28Q922.27 28.39 922.27 32.10Q922.27 36.08 920.84 39.27Q919.41 42.46 916.69 44.15Q913.96 45.85 910.96 45.85Q908.76 45.85 907.02 44.92Q905.27 43.99 904.15 42.58L904.15 55.20L899.76 55.20M903.74 32.45Q903.74 37.45 905.76 39.84Q907.79 42.24 910.67 42.24Q913.60 42.24 915.69 39.76Q917.77 37.28 917.77 32.08Q917.77 27.12 915.73 24.66Q913.70 22.19 910.86 22.19Q908.06 22.19 905.90 24.82Q903.74 27.44 903.74 32.45ZM944.48 42.07Q942.04 44.14 939.78 45.00Q937.52 45.85 934.94 45.85Q930.66 45.85 928.37 43.76Q926.07 41.67 926.07 38.43Q926.07 36.52 926.94 34.95Q927.81 33.37 929.21 32.42Q930.62 31.47 932.37 30.98Q933.67 30.64 936.28 30.32Q941.60 29.69 944.12 28.81Q944.14 27.91 944.14 27.66Q944.14 24.98 942.90 23.88Q941.21 22.39 937.89 22.39Q934.79 22.39 933.31 23.47Q931.84 24.56 931.13 27.32L926.83 26.73Q927.42 23.97 928.76 22.28Q930.10 20.58 932.64 19.67Q935.18 18.75 938.53 18.75Q941.85 18.75 943.92 19.53Q946.00 20.31 946.97 21.50Q947.95 22.68 948.34 24.49Q948.56 25.61 948.56 28.54L948.56 34.40Q948.56 40.53 948.84 42.15Q949.12 43.77 949.95 45.26L945.36 45.26Q944.68 43.90 944.48 42.07M944.12 32.25Q941.72 33.23 936.94 33.91Q934.23 34.30 933.11 34.79Q931.98 35.28 931.37 36.22Q930.76 37.16 930.76 38.31Q930.76 40.06 932.09 41.24Q933.42 42.41 935.99 42.41Q938.53 42.41 940.50 41.30Q942.48 40.19 943.41 38.26Q944.12 36.77 944.12 33.86L944.12 32.25ZM964.97 41.33L965.60 45.21Q963.75 45.61 962.28 45.61Q959.89 45.61 958.57 44.85Q957.25 44.09 956.71 42.86Q956.18 41.63 956.18 37.67L956.18 22.75L952.95 22.75L952.95 19.34L956.18 19.34L956.18 12.92L960.55 10.28L960.55 19.34L964.97 19.34L964.97 22.75L960.55 22.75L960.55 37.92Q960.55 39.79 960.78 40.33Q961.01 40.87 961.54 41.19Q962.06 41.50 963.04 41.50Q963.77 41.50 964.97 41.33ZM969.26 45.26L969.26 9.47L973.66 9.47L973.66 22.31Q976.73 18.75 981.42 18.75Q984.30 18.75 986.43 19.89Q988.55 21.02 989.47 23.02Q990.38 25.02 990.38 28.83L990.38 45.26L985.99 45.26L985.99 28.83Q985.99 25.54 984.56 24.04Q983.13 22.53 980.52 22.53Q978.56 22.53 976.84 23.55Q975.12 24.56 974.39 26.29Q973.66 28.03 973.66 31.08L973.66 45.26L969.26 45.26ZM995.31 37.52L999.66 36.84Q1000.02 39.45 1001.70 40.84Q1003.37 42.24 1006.37 42.24Q1009.40 42.24 1010.86 41.00Q1012.33 39.77 1012.33 38.11Q1012.33 36.62 1011.04 35.77Q1010.13 35.18 1006.54 34.28Q1001.71 33.06 999.84 32.17Q997.97 31.27 997.01 29.70Q996.04 28.13 996.04 26.22Q996.04 24.49 996.84 23.01Q997.63 21.53 999.00 20.56Q1000.02 19.80 1001.79 19.27Q1003.56 18.75 1005.59 18.75Q1008.64 18.75 1010.95 19.63Q1013.26 20.51 1014.36 22.01Q1015.45 23.51 1015.87 26.03L1011.57 26.61Q1011.28 24.61 1009.88 23.49Q1008.47 22.36 1005.91 22.36Q1002.88 22.36 1001.59 23.36Q1000.29 24.37 1000.29 25.71Q1000.29 26.56 1000.83 27.25Q1001.37 27.95 1002.51 28.42Q1003.17 28.66 1006.40 29.54Q1011.06 30.79 1012.90 31.58Q1014.75 32.37 1015.80 33.89Q1016.85 35.40 1016.85 37.65Q1016.85 39.84 1015.56 41.78Q1014.28 43.73 1011.87 44.79Q1009.45 45.85 1006.40 45.85Q1001.34 45.85 998.69 43.75Q996.04 41.65 995.31 37.52ZM1023.32 45.26L1023.32 40.26L1028.32 40.26L1028.32 45.26L1023.32 45.26Z"/></g><g transform="translate(0, 60.595703125)"><path d=""/></g><g transform="translate(0, 121.19140625)"><path d="M13.79 45.26L13.79 30.10L0 9.47L5.76 9.47L12.82 20.26Q14.77 23.29 16.46 26.32Q18.07 23.51 20.36 20.00L27.29 9.47L32.81 9.47L18.53 30.10L18.53 45.26L13.79 45.26ZM30.27 32.30Q30.27 25.10 34.28 21.63Q37.62 18.75 42.43 18.75Q47.78 18.75 51.17 22.25Q54.57 25.76 54.57 31.93Q54.57 36.94 53.06 39.81Q51.56 42.68 48.69 44.26Q45.83 45.85 42.43 45.85Q36.99 45.85 33.63 42.36Q30.27 38.87 30.27 32.30M34.79 32.30Q34.79 37.28 36.96 39.76Q39.14 42.24 42.43 42.24Q45.70 42.24 47.88 39.75Q50.05 37.26 50.05 32.15Q50.05 27.34 47.86 24.87Q45.68 22.39 42.43 22.39Q39.14 22.39 36.96 24.85Q34.79 27.32 34.79 32.30ZM76.71 45.26L76.71 41.46Q73.68 45.85 68.48 45.85Q66.19 45.85 64.20 44.97Q62.21 44.09 61.24 42.76Q60.28 41.43 59.89 39.50Q59.62 38.21 59.62 35.40L59.62 19.34L64.01 19.34L64.01 33.72Q64.01 37.16 64.28 38.35Q64.70 40.09 66.04 41.08Q67.38 42.07 69.36 42.07Q71.34 42.07 73.07 41.05Q74.80 40.04 75.52 38.29Q76.25 36.55 76.25 33.23L76.25 19.34L80.64 19.34L80.64 45.26L76.71 45.26ZM118.33 35.77L122.66 36.33Q121.95 40.80 119.03 43.32Q116.11 45.85 111.87 45.85Q106.54 45.85 103.31 42.37Q100.07 38.89 100.07 32.40Q100.07 28.20 101.46 25.05Q102.86 21.90 105.70 20.32Q108.54 18.75 111.89 18.75Q116.11 18.75 118.80 20.89Q121.48 23.02 122.24 26.95L117.97 27.61Q117.36 25 115.81 23.68Q114.26 22.36 112.06 22.36Q108.74 22.36 106.67 24.74Q104.59 27.12 104.59 32.28Q104.59 37.50 106.59 39.87Q108.59 42.24 111.82 42.24Q114.40 42.24 116.14 40.65Q117.87 39.06 118.33 35.77ZM143.33 42.07Q140.89 44.14 138.64 45.00Q136.38 45.85 133.79 45.85Q129.52 45.85 127.22 43.76Q124.93 41.67 124.93 38.43Q124.93 36.52 125.79 34.95Q126.66 33.37 128.06 32.42Q129.47 31.47 131.23 30.98Q132.52 30.64 135.13 30.32Q140.45 29.69 142.97 28.81Q142.99 27.91 142.99 27.66Q142.99 24.98 141.75 23.88Q140.06 22.39 136.74 22.39Q133.64 22.39 132.17 23.47Q130.69 24.56 129.98 27.32L125.68 26.73Q126.27 23.97 127.61 22.28Q128.96 20.58 131.49 19.67Q134.03 18.75 137.38 18.75Q140.70 18.75 142.77 19.53Q144.85 20.31 145.83 21.50Q146.80 22.68 147.19 24.49Q147.41 25.61 147.41 28.54L147.41 34.40Q147.41 40.53 147.69 42.15Q147.97 43.77 148.80 45.26L144.21 45.26Q143.53 43.90 143.33 42.07M142.97 32.25Q140.58 33.23 135.79 33.91Q133.08 34.30 131.96 34.79Q130.83 35.28 130.22 36.22Q129.61 37.16 129.61 38.31Q129.61 40.06 130.94 41.24Q132.28 42.41 134.84 42.41Q137.38 42.41 139.36 41.30Q141.33 40.19 142.26 38.26Q142.97 36.77 142.97 33.86L142.97 32.25ZM154.22 45.26L154.22 19.34L158.18 19.34L158.18 23.02Q161.04 18.75 166.43 18.75Q168.77 18.75 170.74 19.59Q172.71 20.43 173.68 21.80Q174.66 23.17 175.05 25.05Q175.29 26.27 175.29 29.32L175.29 45.26L170.90 45.26L170.90 29.49Q170.90 26.81 170.39 25.48Q169.87 24.15 168.57 23.35Q167.26 22.56 165.50 22.56Q162.70 22.56 160.66 24.34Q158.62 26.12 158.62 31.10L158.62 45.26L154.22 45.26ZM195.92 55.20L195.92 19.34L199.93 19.34L199.93 22.71Q201.34 20.73 203.13 19.74Q204.91 18.75 207.45 18.75Q210.77 18.75 213.31 20.46Q215.84 22.17 217.14 25.28Q218.43 28.39 218.43 32.10Q218.43 36.08 217.00 39.27Q215.58 42.46 212.85 44.15Q210.13 45.85 207.13 45.85Q204.93 45.85 203.19 44.92Q201.44 43.99 200.32 42.58L200.32 55.20L195.92 55.20M199.90 32.45Q199.90 37.45 201.93 39.84Q203.96 42.24 206.84 42.24Q209.77 42.24 211.85 39.76Q213.94 37.28 213.94 32.08Q213.94 27.12 211.90 24.66Q209.86 22.19 207.03 22.19Q204.22 22.19 202.06 24.82Q199.90 27.44 199.90 32.45ZM223.68 45.26L223.68 19.34L227.64 19.34L227.64 23.27Q229.15 20.51 230.43 19.63Q231.71 18.75 233.25 18.75Q235.47 18.75 237.77 20.17L236.25 24.24Q234.64 23.29 233.03 23.29Q231.59 23.29 230.44 24.16Q229.30 25.02 228.81 26.56Q228.08 28.91 228.08 31.69L228.08 45.26L223.68 45.26ZM258.13 36.91L262.67 37.48Q261.60 41.46 258.69 43.65Q255.79 45.85 251.27 45.85Q245.58 45.85 242.25 42.35Q238.92 38.84 238.92 32.52Q238.92 25.98 242.29 22.36Q245.65 18.75 251.03 18.75Q256.23 18.75 259.52 22.29Q262.82 25.83 262.82 32.25Q262.82 32.64 262.79 33.42L243.46 33.42Q243.70 37.70 245.87 39.97Q248.05 42.24 251.29 42.24Q253.71 42.24 255.42 40.97Q257.13 39.70 258.13 36.91M243.70 29.81L258.18 29.81Q257.89 26.54 256.52 24.90Q254.42 22.36 251.07 22.36Q248.05 22.36 245.98 24.39Q243.92 26.42 243.70 29.81ZM275.39 45.26L265.53 19.34L270.17 19.34L275.73 34.86Q276.64 37.38 277.39 40.09Q277.98 38.04 279.03 35.16L284.79 19.34L289.31 19.34L279.49 45.26L275.39 45.26ZM293.21 14.53L293.21 9.47L297.61 9.47L297.61 14.53L293.21 14.53M293.21 45.26L293.21 19.34L297.61 19.34L297.61 45.26L293.21 45.26ZM322.05 36.91L326.59 37.48Q325.51 41.46 322.61 43.65Q319.70 45.85 315.19 45.85Q309.50 45.85 306.16 42.35Q302.83 38.84 302.83 32.52Q302.83 25.98 306.20 22.36Q309.57 18.75 314.94 18.75Q320.14 18.75 323.44 22.29Q326.73 25.83 326.73 32.25Q326.73 32.64 326.71 33.42L307.37 33.42Q307.62 37.70 309.79 39.97Q311.96 42.24 315.21 42.24Q317.63 42.24 319.34 40.97Q321.04 39.70 322.05 36.91M307.62 29.81L322.09 29.81Q321.80 26.54 320.43 24.90Q318.33 22.36 314.99 22.36Q311.96 22.36 309.90 24.39Q307.84 26.42 307.62 29.81ZM336.89 45.26L328.96 19.34L333.50 19.34L337.62 34.30L339.16 39.87Q339.26 39.45 340.50 34.52L344.63 19.34L349.15 19.34L353.03 34.38L354.32 39.33L355.81 34.33L360.25 19.34L364.53 19.34L356.42 45.26L351.86 45.26L347.73 29.74L346.73 25.32L341.48 45.26L336.89 45.26ZM391.70 41.33L392.33 45.21Q390.48 45.61 389.01 45.61Q386.62 45.61 385.30 44.85Q383.98 44.09 383.45 42.86Q382.91 41.63 382.91 37.67L382.91 22.75L379.69 22.75L379.69 19.34L382.91 19.34L382.91 12.92L387.28 10.28L387.28 19.34L391.70 19.34L391.70 22.75L387.28 22.75L387.28 37.92Q387.28 39.79 387.51 40.33Q387.74 40.87 388.27 41.19Q388.79 41.50 389.77 41.50Q390.50 41.50 391.70 41.33ZM396.00 45.26L396.00 9.47L400.39 9.47L400.39 22.31Q403.47 18.75 408.15 18.75Q411.04 18.75 413.16 19.89Q415.28 21.02 416.20 23.02Q417.11 25.02 417.11 28.83L417.11 45.26L412.72 45.26L412.72 28.83Q412.72 25.54 411.29 24.04Q409.86 22.53 407.25 22.53Q405.30 22.53 403.58 23.55Q401.86 24.56 401.12 26.29Q400.39 28.03 400.39 31.08L400.39 45.26L396.00 45.26ZM441.55 36.91L446.09 37.48Q445.02 41.46 442.11 43.65Q439.21 45.85 434.69 45.85Q429.00 45.85 425.67 42.35Q422.34 38.84 422.34 32.52Q422.34 25.98 425.71 22.36Q429.08 18.75 434.45 18.75Q439.65 18.75 442.94 22.29Q446.24 25.83 446.24 32.25Q446.24 32.64 446.22 33.42L426.88 33.42Q427.12 37.70 429.30 39.97Q431.47 42.24 434.72 42.24Q437.13 42.24 438.84 40.97Q440.55 39.70 441.55 36.91M427.12 29.81L441.60 29.81Q441.31 26.54 439.94 24.90Q437.84 22.36 434.50 22.36Q431.47 22.36 429.41 24.39Q427.34 26.42 427.12 29.81ZM464.45 33.76L468.92 33.37Q469.24 36.06 470.40 37.78Q471.56 39.50 474.00 40.56Q476.44 41.63 479.49 41.63Q482.20 41.63 484.28 40.82Q486.35 40.01 487.37 38.61Q488.38 37.21 488.38 35.55Q488.38 33.86 487.40 32.60Q486.43 31.35 484.18 30.49Q482.74 29.93 477.81 28.75Q472.88 27.56 470.90 26.51Q468.33 25.17 467.08 23.18Q465.82 21.19 465.82 18.73Q465.82 16.02 467.36 13.66Q468.90 11.30 471.85 10.08Q474.80 8.86 478.42 8.86Q482.40 8.86 485.44 10.14Q488.48 11.43 490.11 13.92Q491.75 16.41 491.87 19.56L487.33 19.90Q486.96 16.50 484.85 14.77Q482.74 13.04 478.61 13.04Q474.32 13.04 472.35 14.61Q470.39 16.19 470.39 18.41Q470.39 20.34 471.78 21.58Q473.14 22.83 478.92 24.13Q484.69 25.44 486.84 26.42Q489.97 27.86 491.46 30.07Q492.94 32.28 492.94 35.16Q492.94 38.01 491.31 40.54Q489.67 43.07 486.61 44.47Q483.54 45.87 479.71 45.87Q474.85 45.87 471.57 44.46Q468.29 43.04 466.42 40.20Q464.55 37.35 464.45 33.76ZM509.64 45.26L495.78 9.47L500.90 9.47L510.21 35.47Q511.33 38.60 512.08 41.33Q512.92 38.40 514.01 35.47L523.68 9.47L528.52 9.47L514.50 45.26L509.64 45.26ZM549.51 31.23L549.51 27.03L564.67 27.00L564.67 40.28Q561.18 43.07 557.47 44.47Q553.76 45.87 549.85 45.87Q544.58 45.87 540.27 43.62Q535.96 41.36 533.76 37.08Q531.57 32.81 531.57 27.54Q531.57 22.31 533.75 17.79Q535.94 13.26 540.04 11.06Q544.14 8.86 549.49 8.86Q553.37 8.86 556.51 10.12Q559.64 11.38 561.43 13.62Q563.21 15.87 564.14 19.48L559.86 20.65Q559.06 17.92 557.86 16.36Q556.67 14.79 554.44 13.85Q552.22 12.92 549.51 12.92Q546.26 12.92 543.90 13.90Q541.53 14.89 540.08 16.50Q538.62 18.12 537.82 20.04Q536.45 23.36 536.45 27.25Q536.45 32.03 538.10 35.25Q539.75 38.48 542.90 40.04Q546.04 41.60 549.58 41.60Q552.66 41.60 555.59 40.42Q558.52 39.23 560.03 37.89L560.03 31.23L549.51 31.23ZM601.90 35.77L606.23 36.33Q605.52 40.80 602.60 43.32Q599.68 45.85 595.43 45.85Q590.11 45.85 586.88 42.37Q583.64 38.89 583.64 32.40Q583.64 28.20 585.03 25.05Q586.43 21.90 589.27 20.32Q592.11 18.75 595.46 18.75Q599.68 18.75 602.37 20.89Q605.05 23.02 605.81 26.95L601.54 27.61Q600.93 25 599.38 23.68Q597.83 22.36 595.63 22.36Q592.31 22.36 590.23 24.74Q588.16 27.12 588.16 32.28Q588.16 37.50 590.16 39.87Q592.16 42.24 595.39 42.24Q597.97 42.24 599.71 40.65Q601.44 39.06 601.90 35.77ZM608.35 32.30Q608.35 25.10 612.35 21.63Q615.70 18.75 620.51 18.75Q625.85 18.75 629.25 22.25Q632.64 25.76 632.64 31.93Q632.64 36.94 631.14 39.81Q629.64 42.68 626.77 44.26Q623.90 45.85 620.51 45.85Q615.06 45.85 611.71 42.36Q608.35 38.87 608.35 32.30M612.87 32.30Q612.87 37.28 615.04 39.76Q617.21 42.24 620.51 42.24Q623.78 42.24 625.95 39.75Q628.13 37.26 628.13 32.15Q628.13 27.34 625.94 24.87Q623.75 22.39 620.51 22.39Q617.21 22.39 615.04 24.85Q612.87 27.32 612.87 32.30ZM654.61 45.26L654.61 41.99Q652.15 45.85 647.36 45.85Q644.26 45.85 641.66 44.14Q639.06 42.43 637.63 39.37Q636.21 36.30 636.21 32.32Q636.21 28.44 637.50 25.28Q638.79 22.12 641.38 20.43Q643.97 18.75 647.17 18.75Q649.51 18.75 651.34 19.74Q653.17 20.73 654.32 22.31L654.32 9.47L658.69 9.47L658.69 45.26L654.61 45.26M640.72 32.32Q640.72 37.30 642.82 39.77Q644.92 42.24 647.78 42.24Q650.66 42.24 652.67 39.88Q654.69 37.52 654.69 32.69Q654.69 27.37 652.64 24.88Q650.59 22.39 647.58 22.39Q644.65 22.39 642.69 24.78Q640.72 27.17 640.72 32.32ZM683.35 36.91L687.89 37.48Q686.82 41.46 683.91 43.65Q681.01 45.85 676.49 45.85Q670.80 45.85 667.47 42.35Q664.14 38.84 664.14 32.52Q664.14 25.98 667.50 22.36Q670.87 18.75 676.25 18.75Q681.45 18.75 684.74 22.29Q688.04 25.83 688.04 32.25Q688.04 32.64 688.01 33.42L668.68 33.42Q668.92 37.70 671.09 39.97Q673.27 42.24 676.51 42.24Q678.93 42.24 680.64 40.97Q682.35 39.70 683.35 36.91M668.92 29.81L683.40 29.81Q683.11 26.54 681.74 24.90Q679.64 22.36 676.29 22.36Q673.27 22.36 671.20 24.39Q669.14 26.42 668.92 29.81ZM724.22 42.07Q721.78 44.14 719.52 45.00Q717.26 45.85 714.67 45.85Q710.40 45.85 708.11 43.76Q705.81 41.67 705.81 38.43Q705.81 36.52 706.68 34.95Q707.54 33.37 708.95 32.42Q710.35 31.47 712.11 30.98Q713.40 30.64 716.02 30.32Q721.34 29.69 723.85 28.81Q723.88 27.91 723.88 27.66Q723.88 24.98 722.63 23.88Q720.95 22.39 717.63 22.39Q714.53 22.39 713.05 23.47Q711.57 24.56 710.86 27.32L706.57 26.73Q707.15 23.97 708.50 22.28Q709.84 20.58 712.38 19.67Q714.92 18.75 718.26 18.75Q721.58 18.75 723.66 19.53Q725.73 20.31 726.71 21.50Q727.69 22.68 728.08 24.49Q728.30 25.61 728.30 28.54L728.30 34.40Q728.30 40.53 728.58 42.15Q728.86 43.77 729.69 45.26L725.10 45.26Q724.41 43.90 724.22 42.07M723.85 32.25Q721.46 33.23 716.67 33.91Q713.96 34.30 712.84 34.79Q711.72 35.28 711.11 36.22Q710.50 37.16 710.50 38.31Q710.50 40.06 711.83 41.24Q713.16 42.41 715.72 42.41Q718.26 42.41 720.24 41.30Q722.22 40.19 723.14 38.26Q723.85 36.77 723.85 33.86L723.85 32.25ZM735.11 45.26L735.11 19.34L739.06 19.34L739.06 23.02Q741.92 18.75 747.31 18.75Q749.66 18.75 751.62 19.59Q753.59 20.43 754.57 21.80Q755.54 23.17 755.93 25.05Q756.18 26.27 756.18 29.32L756.18 45.26L751.78 45.26L751.78 29.49Q751.78 26.81 751.27 25.48Q750.76 24.15 749.45 23.35Q748.14 22.56 746.39 22.56Q743.58 22.56 741.54 24.34Q739.50 26.12 739.50 31.10L739.50 45.26L735.11 45.26ZM779.74 45.26L779.74 41.99Q777.27 45.85 772.49 45.85Q769.38 45.85 766.78 44.14Q764.18 42.43 762.76 39.37Q761.33 36.30 761.33 32.32Q761.33 28.44 762.62 25.28Q763.92 22.12 766.50 20.43Q769.09 18.75 772.29 18.75Q774.63 18.75 776.46 19.74Q778.30 20.73 779.44 22.31L779.44 9.47L783.81 9.47L783.81 45.26L779.74 45.26M765.84 32.32Q765.84 37.30 767.94 39.77Q770.04 42.24 772.90 42.24Q775.78 42.24 777.80 39.88Q779.81 37.52 779.81 32.69Q779.81 27.37 777.76 24.88Q775.71 22.39 772.71 22.39Q769.78 22.39 767.81 24.78Q765.84 27.17 765.84 32.32ZM821.44 45.26L821.44 41.99Q818.97 45.85 814.18 45.85Q811.08 45.85 808.48 44.14Q805.88 42.43 804.46 39.37Q803.03 36.30 803.03 32.32Q803.03 28.44 804.32 25.28Q805.62 22.12 808.20 20.43Q810.79 18.75 813.99 18.75Q816.33 18.75 818.16 19.74Q820.00 20.73 821.14 22.31L821.14 9.47L825.51 9.47L825.51 45.26L821.44 45.26M807.54 32.32Q807.54 37.30 809.64 39.77Q811.74 42.24 814.60 42.24Q817.48 42.24 819.49 39.88Q821.51 37.52 821.51 32.69Q821.51 27.37 819.46 24.88Q817.41 22.39 814.40 22.39Q811.47 22.39 809.51 24.78Q807.54 27.17 807.54 32.32ZM830.79 32.30Q830.79 25.10 834.79 21.63Q838.13 18.75 842.94 18.75Q848.29 18.75 851.68 22.25Q855.08 25.76 855.08 31.93Q855.08 36.94 853.58 39.81Q852.08 42.68 849.21 44.26Q846.34 45.85 842.94 45.85Q837.50 45.85 834.14 42.36Q830.79 38.87 830.79 32.30M835.30 32.30Q835.30 37.28 837.48 39.76Q839.65 42.24 842.94 42.24Q846.22 42.24 848.39 39.75Q850.56 37.26 850.56 32.15Q850.56 27.34 848.38 24.87Q846.19 22.39 842.94 22.39Q839.65 22.39 837.48 24.85Q835.30 27.32 835.30 32.30ZM865.01 45.26L857.08 19.34L861.62 19.34L865.75 34.30L867.29 39.87Q867.38 39.45 868.63 34.52L872.75 19.34L877.27 19.34L881.15 34.38L882.45 39.33L883.94 34.33L888.38 19.34L892.65 19.34L884.55 45.26L879.98 45.26L875.85 29.74L874.85 25.32L869.60 45.26L865.01 45.26ZM896.34 45.26L896.34 19.34L900.29 19.34L900.29 23.02Q903.15 18.75 908.54 18.75Q910.89 18.75 912.85 19.59Q914.82 20.43 915.80 21.80Q916.77 23.17 917.16 25.05Q917.41 26.27 917.41 29.32L917.41 45.26L913.01 45.26L913.01 29.49Q913.01 26.81 912.50 25.48Q911.99 24.15 910.68 23.35Q909.38 22.56 907.62 22.56Q904.81 22.56 902.77 24.34Q900.73 26.12 900.73 31.10L900.73 45.26L896.34 45.26ZM924.05 45.26L924.05 9.47L928.44 9.47L928.44 45.26L924.05 45.26ZM933.62 32.30Q933.62 25.10 937.62 21.63Q940.97 18.75 945.78 18.75Q951.12 18.75 954.52 22.25Q957.91 25.76 957.91 31.93Q957.91 36.94 956.41 39.81Q954.91 42.68 952.04 44.26Q949.17 45.85 945.78 45.85Q940.33 45.85 936.98 42.36Q933.62 38.87 933.62 32.30M938.13 32.30Q938.13 37.28 940.31 39.76Q942.48 42.24 945.78 42.24Q949.05 42.24 951.22 39.75Q953.39 37.26 953.39 32.15Q953.39 27.34 951.21 24.87Q949.02 22.39 945.78 22.39Q942.48 22.39 940.31 24.85Q938.13 27.32 938.13 32.30ZM979.98 42.07Q977.54 44.14 975.28 45.00Q973.02 45.85 970.43 45.85Q966.16 45.85 963.87 43.76Q961.57 41.67 961.57 38.43Q961.57 36.52 962.44 34.95Q963.31 33.37 964.71 32.42Q966.11 31.47 967.87 30.98Q969.17 30.64 971.78 30.32Q977.10 29.69 979.61 28.81Q979.64 27.91 979.64 27.66Q979.64 24.98 978.39 23.88Q976.71 22.39 973.39 22.39Q970.29 22.39 968.81 23.47Q967.33 24.56 966.63 27.32L962.33 26.73Q962.92 23.97 964.26 22.28Q965.60 20.58 968.14 19.67Q970.68 18.75 974.02 18.75Q977.34 18.75 979.42 19.53Q981.49 20.31 982.47 21.50Q983.45 22.68 983.84 24.49Q984.06 25.61 984.06 28.54L984.06 34.40Q984.06 40.53 984.34 42.15Q984.62 43.77 985.45 45.26L980.86 45.26Q980.18 43.90 979.98 42.07M979.61 32.25Q977.22 33.23 972.44 33.91Q969.73 34.30 968.60 34.79Q967.48 35.28 966.87 36.22Q966.26 37.16 966.26 38.31Q966.26 40.06 967.59 41.24Q968.92 42.41 971.48 42.41Q974.02 42.41 976.00 41.30Q977.98 40.19 978.91 38.26Q979.61 36.77 979.61 33.86L979.61 32.25ZM1007.69 45.26L1007.69 41.99Q1005.22 45.85 1000.44 45.85Q997.34 45.85 994.74 44.14Q992.14 42.43 990.71 39.37Q989.28 36.30 989.28 32.32Q989.28 28.44 990.58 25.28Q991.87 22.12 994.46 20.43Q997.05 18.75 1000.24 18.75Q1002.59 18.75 1004.42 19.74Q1006.25 20.73 1007.40 22.31L1007.40 9.47L1011.77 9.47L1011.77 45.26L1007.69 45.26M993.80 32.32Q993.80 37.30 995.90 39.77Q998.00 42.24 1000.85 42.24Q1003.74 42.24 1005.75 39.88Q1007.76 37.52 1007.76 32.69Q1007.76 27.37 1005.71 24.88Q1003.66 22.39 1000.66 22.39Q997.73 22.39 995.76 24.78Q993.80 27.17 993.80 32.32ZM1032.59 14.53L1032.59 9.47L1036.99 9.47L1036.99 14.53L1032.59 14.53M1032.59 45.26L1032.59 19.34L1036.99 19.34L1036.99 45.26L1032.59 45.26ZM1053.27 41.33L1053.91 45.21Q1052.05 45.61 1050.59 45.61Q1048.19 45.61 1046.88 44.85Q1045.56 44.09 1045.02 42.86Q1044.48 41.63 1044.48 37.67L1044.48 22.75L1041.26 22.75L1041.26 19.34L1044.48 19.34L1044.48 12.92L1048.85 10.28L1048.85 19.34L1053.27 19.34L1053.27 22.75L1048.85 22.75L1048.85 37.92Q1048.85 39.79 1049.08 40.33Q1049.32 40.87 1049.84 41.19Q1050.37 41.50 1051.34 41.50Q1052.08 41.50 1053.27 41.33ZM1071.48 14.53L1071.48 9.47L1075.88 9.47L1075.88 14.53L1071.48 14.53M1071.48 45.26L1071.48 19.34L1075.88 19.34L1075.88 45.26L1071.48 45.26ZM1082.57 45.26L1082.57 19.34L1086.52 19.34L1086.52 23.02Q1089.38 18.75 1094.78 18.75Q1097.12 18.75 1099.08 19.59Q1101.05 20.43 1102.03 21.80Q1103.00 23.17 1103.39 25.05Q1103.64 26.27 1103.64 29.32L1103.64 45.26L1099.24 45.26L1099.24 29.49Q1099.24 26.81 1098.73 25.48Q1098.22 24.15 1096.91 23.35Q1095.61 22.56 1093.85 22.56Q1091.04 22.56 1089.00 24.34Q1086.96 26.12 1086.96 31.10L1086.96 45.26L1082.57 45.26Z"/></g><g transform="translate(0, 181.787109375)"><path d="M9.86 45.26L0 19.34L4.64 19.34L10.21 34.86Q11.11 37.38 11.87 40.09Q12.45 38.04 13.50 35.16L19.26 19.34L23.78 19.34L13.96 45.26L9.86 45.26ZM44.58 42.07Q42.14 44.14 39.88 45.00Q37.62 45.85 35.03 45.85Q30.76 45.85 28.47 43.76Q26.17 41.67 26.17 38.43Q26.17 36.52 27.04 34.95Q27.91 33.37 29.31 32.42Q30.71 31.47 32.47 30.98Q33.76 30.64 36.38 30.32Q41.70 29.69 44.21 28.81Q44.24 27.91 44.24 27.66Q44.24 24.98 42.99 23.88Q41.31 22.39 37.99 22.39Q34.89 22.39 33.41 23.47Q31.93 24.56 31.23 27.32L26.93 26.73Q27.51 23.97 28.86 22.28Q30.20 20.58 32.74 19.67Q35.28 18.75 38.62 18.75Q41.94 18.75 44.02 19.53Q46.09 20.31 47.07 21.50Q48.05 22.68 48.44 24.49Q48.66 25.61 48.66 28.54L48.66 34.40Q48.66 40.53 48.94 42.15Q49.22 43.77 50.05 45.26L45.46 45.26Q44.78 43.90 44.58 42.07M44.21 32.25Q41.82 33.23 37.04 33.91Q34.33 34.30 33.20 34.79Q32.08 35.28 31.47 36.22Q30.86 37.16 30.86 38.31Q30.86 40.06 32.19 41.24Q33.52 42.41 36.08 42.41Q38.62 42.41 40.60 41.30Q42.58 40.19 43.51 38.26Q44.21 36.77 44.21 33.86L44.21 32.25ZM55.42 45.26L55.42 19.34L59.38 19.34L59.38 23.27Q60.89 20.51 62.17 19.63Q63.45 18.75 64.99 18.75Q67.21 18.75 69.51 20.17L67.99 24.24Q66.38 23.29 64.77 23.29Q63.33 23.29 62.18 24.16Q61.04 25.02 60.55 26.56Q59.81 28.91 59.81 31.69L59.81 45.26L55.42 45.26ZM72.14 14.53L72.14 9.47L76.54 9.47L76.54 14.53L72.14 14.53M72.14 45.26L72.14 19.34L76.54 19.34L76.54 45.26L72.14 45.26ZM81.59 32.30Q81.59 25.10 85.60 21.63Q88.94 18.75 93.75 18.75Q99.10 18.75 102.49 22.25Q105.88 25.76 105.88 31.93Q105.88 36.94 104.38 39.81Q102.88 42.68 100.01 44.26Q97.14 45.85 93.75 45.85Q88.31 45.85 84.95 42.36Q81.59 38.87 81.59 32.30M86.11 32.30Q86.11 37.28 88.28 39.76Q90.45 42.24 93.75 42.24Q97.02 42.24 99.19 39.75Q101.37 37.26 101.37 32.15Q101.37 27.34 99.18 24.87Q97.00 22.39 93.75 22.39Q90.45 22.39 88.28 24.85Q86.11 27.32 86.11 32.30ZM128.03 45.26L128.03 41.46Q125 45.85 119.80 45.85Q117.50 45.85 115.52 44.97Q113.53 44.09 112.56 42.76Q111.60 41.43 111.21 39.50Q110.94 38.21 110.94 35.40L110.94 19.34L115.33 19.34L115.33 33.72Q115.33 37.16 115.60 38.35Q116.02 40.09 117.36 41.08Q118.70 42.07 120.68 42.07Q122.66 42.07 124.39 41.05Q126.12 40.04 126.84 38.29Q127.56 36.55 127.56 33.23L127.56 19.34L131.96 19.34L131.96 45.26L128.03 45.26ZM137.08 37.52L141.43 36.84Q141.80 39.45 143.47 40.84Q145.14 42.24 148.14 42.24Q151.17 42.24 152.64 41.00Q154.10 39.77 154.10 38.11Q154.10 36.62 152.81 35.77Q151.90 35.18 148.32 34.28Q143.48 33.06 141.61 32.17Q139.75 31.27 138.78 29.70Q137.82 28.13 137.82 26.22Q137.82 24.49 138.61 23.01Q139.40 21.53 140.77 20.56Q141.80 19.80 143.57 19.27Q145.34 18.75 147.36 18.75Q150.42 18.75 152.72 19.63Q155.03 20.51 156.13 22.01Q157.23 23.51 157.64 26.03L153.34 26.61Q153.05 24.61 151.65 23.49Q150.24 22.36 147.68 22.36Q144.65 22.36 143.36 23.36Q142.07 24.37 142.07 25.71Q142.07 26.56 142.60 27.25Q143.14 27.95 144.29 28.42Q144.95 28.66 148.17 29.54Q152.83 30.79 154.68 31.58Q156.52 32.37 157.57 33.89Q158.62 35.40 158.62 37.65Q158.62 39.84 157.34 41.78Q156.05 43.73 153.64 44.79Q151.22 45.85 148.17 45.85Q143.12 45.85 140.47 43.75Q137.82 41.65 137.08 37.52ZM178.78 45.26L178.78 22.75L174.90 22.75L174.90 19.34L178.78 19.34L178.78 16.58Q178.78 13.96 179.25 12.70Q179.88 10.99 181.48 9.92Q183.08 8.86 185.96 8.86Q187.82 8.86 190.06 9.30L189.40 13.13Q188.04 12.89 186.82 12.89Q184.81 12.89 183.98 13.75Q183.15 14.60 183.15 16.94L183.15 19.34L188.21 19.34L188.21 22.75L183.15 22.75L183.15 45.26L178.78 45.26ZM189.99 32.30Q189.99 25.10 193.99 21.63Q197.34 18.75 202.15 18.75Q207.50 18.75 210.89 22.25Q214.28 25.76 214.28 31.93Q214.28 36.94 212.78 39.81Q211.28 42.68 208.41 44.26Q205.54 45.85 202.15 45.85Q196.70 45.85 193.35 42.36Q189.99 38.87 189.99 32.30M194.51 32.30Q194.51 37.28 196.68 39.76Q198.85 42.24 202.15 42.24Q205.42 42.24 207.59 39.75Q209.77 37.26 209.77 32.15Q209.77 27.34 207.58 24.87Q205.40 22.39 202.15 22.39Q198.85 22.39 196.68 24.85Q194.51 27.32 194.51 32.30ZM219.38 45.26L219.38 19.34L223.34 19.34L223.34 23.27Q224.85 20.51 226.14 19.63Q227.42 18.75 228.96 18.75Q231.18 18.75 233.47 20.17L231.96 24.24Q230.35 23.29 228.74 23.29Q227.29 23.29 226.15 24.16Q225 25.02 224.51 26.56Q223.78 28.91 223.78 31.69L223.78 45.26L219.38 45.26ZM236.08 45.26L236.08 19.34L240.01 19.34L240.01 22.97Q241.24 21.07 243.26 19.91Q245.29 18.75 247.88 18.75Q250.76 18.75 252.60 19.95Q254.44 21.14 255.20 23.29Q258.28 18.75 263.21 18.75Q267.07 18.75 269.14 20.89Q271.22 23.02 271.22 27.47L271.22 45.26L266.85 45.26L266.85 28.93Q266.85 26.29 266.42 25.13Q265.99 23.97 264.87 23.27Q263.75 22.56 262.23 22.56Q259.50 22.56 257.69 24.38Q255.88 26.20 255.88 30.20L255.88 45.26L251.49 45.26L251.49 28.42Q251.49 25.49 250.42 24.02Q249.34 22.56 246.90 22.56Q245.04 22.56 243.47 23.54Q241.89 24.51 241.19 26.39Q240.48 28.27 240.48 31.81L240.48 45.26L236.08 45.26ZM294.65 42.07Q292.21 44.14 289.95 45.00Q287.70 45.85 285.11 45.85Q280.83 45.85 278.54 43.76Q276.25 41.67 276.25 38.43Q276.25 36.52 277.11 34.95Q277.98 33.37 279.38 32.42Q280.79 31.47 282.54 30.98Q283.84 30.64 286.45 30.32Q291.77 29.69 294.29 28.81Q294.31 27.91 294.31 27.66Q294.31 24.98 293.07 23.88Q291.38 22.39 288.06 22.39Q284.96 22.39 283.48 23.47Q282.01 24.56 281.30 27.32L277.00 26.73Q277.59 23.97 278.93 22.28Q280.27 20.58 282.81 19.67Q285.35 18.75 288.70 18.75Q292.02 18.75 294.09 19.53Q296.17 20.31 297.14 21.50Q298.12 22.68 298.51 24.49Q298.73 25.61 298.73 28.54L298.73 34.40Q298.73 40.53 299.01 42.15Q299.29 43.77 300.12 45.26L295.53 45.26Q294.85 43.90 294.65 42.07M294.29 32.25Q291.89 33.23 287.11 33.91Q284.40 34.30 283.28 34.79Q282.15 35.28 281.54 36.22Q280.93 37.16 280.93 38.31Q280.93 40.06 282.26 41.24Q283.59 42.41 286.16 42.41Q288.70 42.41 290.67 41.30Q292.65 40.19 293.58 38.26Q294.29 36.77 294.29 33.86L294.29 32.25ZM315.14 41.33L315.77 45.21Q313.92 45.61 312.45 45.61Q310.06 45.61 308.74 44.85Q307.42 44.09 306.88 42.86Q306.35 41.63 306.35 37.67L306.35 22.75L303.13 22.75L303.13 19.34L306.35 19.34L306.35 12.92L310.72 10.28L310.72 19.34L315.14 19.34L315.14 22.75L310.72 22.75L310.72 37.92Q310.72 39.79 310.95 40.33Q311.18 40.87 311.71 41.19Q312.23 41.50 313.21 41.50Q313.94 41.50 315.14 41.33ZM317.68 37.52L322.02 36.84Q322.39 39.45 324.06 40.84Q325.73 42.24 328.74 42.24Q331.76 42.24 333.23 41.00Q334.69 39.77 334.69 38.11Q334.69 36.62 333.40 35.77Q332.50 35.18 328.91 34.28Q324.07 33.06 322.20 32.17Q320.34 31.27 319.37 29.70Q318.41 28.13 318.41 26.22Q318.41 24.49 319.20 23.01Q320.00 21.53 321.36 20.56Q322.39 19.80 324.16 19.27Q325.93 18.75 327.95 18.75Q331.01 18.75 333.31 19.63Q335.62 20.51 336.72 22.01Q337.82 23.51 338.23 26.03L333.94 26.61Q333.64 24.61 332.24 23.49Q330.83 22.36 328.27 22.36Q325.24 22.36 323.95 23.36Q322.66 24.37 322.66 25.71Q322.66 26.56 323.19 27.25Q323.73 27.95 324.88 28.42Q325.54 28.66 328.76 29.54Q333.42 30.79 335.27 31.58Q337.11 32.37 338.16 33.89Q339.21 35.40 339.21 37.65Q339.21 39.84 337.93 41.78Q336.65 43.73 334.23 44.79Q331.81 45.85 328.76 45.85Q323.71 45.85 321.06 43.75Q318.41 41.65 317.68 37.52ZM345.58 45.26L345.58 40.26L350.59 40.26L350.59 45.26Q350.59 48.02 349.61 49.72Q348.63 51.42 346.51 52.34L345.29 50.46Q346.68 49.85 347.34 48.67Q348.00 47.49 348.07 45.26L345.58 45.26ZM372.24 14.53L372.24 9.47L376.64 9.47L376.64 14.53L372.24 14.53M372.24 45.26L372.24 19.34L376.64 19.34L376.64 45.26L372.24 45.26ZM383.33 45.26L383.33 19.34L387.28 19.34L387.28 23.02Q390.14 18.75 395.53 18.75Q397.88 18.75 399.84 19.59Q401.81 20.43 402.78 21.80Q403.76 23.17 404.15 25.05Q404.39 26.27 404.39 29.32L404.39 45.26L400 45.26L400 29.49Q400 26.81 399.49 25.48Q398.97 24.15 397.67 23.35Q396.36 22.56 394.60 22.56Q391.80 22.56 389.76 24.34Q387.72 26.12 387.72 31.10L387.72 45.26L383.33 45.26ZM428.05 35.77L432.37 36.33Q431.67 40.80 428.75 43.32Q425.83 45.85 421.58 45.85Q416.26 45.85 413.02 42.37Q409.79 38.89 409.79 32.40Q409.79 28.20 411.18 25.05Q412.57 21.90 415.42 20.32Q418.26 18.75 421.61 18.75Q425.83 18.75 428.52 20.89Q431.20 23.02 431.96 26.95L427.69 27.61Q427.08 25 425.52 23.68Q423.97 22.36 421.78 22.36Q418.46 22.36 416.38 24.74Q414.31 27.12 414.31 32.28Q414.31 37.50 416.31 39.87Q418.31 42.24 421.53 42.24Q424.12 42.24 425.85 40.65Q427.59 39.06 428.05 35.77ZM436.04 45.26L436.04 9.47L440.43 9.47L440.43 45.26L436.04 45.26ZM464.23 45.26L464.23 41.46Q461.21 45.85 456.01 45.85Q453.71 45.85 451.72 44.97Q449.73 44.09 448.77 42.76Q447.80 41.43 447.41 39.50Q447.14 38.21 447.14 35.40L447.14 19.34L451.54 19.34L451.54 33.72Q451.54 37.16 451.81 38.35Q452.22 40.09 453.56 41.08Q454.91 42.07 456.88 42.07Q458.86 42.07 460.60 41.05Q462.33 40.04 463.05 38.29Q463.77 36.55 463.77 33.23L463.77 19.34L468.16 19.34L468.16 45.26L464.23 45.26ZM491.87 45.26L491.87 41.99Q489.40 45.85 484.62 45.85Q481.52 45.85 478.92 44.14Q476.32 42.43 474.89 39.37Q473.46 36.30 473.46 32.32Q473.46 28.44 474.76 25.28Q476.05 22.12 478.64 20.43Q481.23 18.75 484.42 18.75Q486.77 18.75 488.60 19.74Q490.43 20.73 491.58 22.31L491.58 9.47L495.95 9.47L495.95 45.26L491.87 45.26M477.98 32.32Q477.98 37.30 480.08 39.77Q482.18 42.24 485.03 42.24Q487.92 42.24 489.93 39.88Q491.94 37.52 491.94 32.69Q491.94 27.37 489.89 24.88Q487.84 22.39 484.84 22.39Q481.91 22.39 479.94 24.78Q477.98 27.17 477.98 32.32ZM502.88 14.53L502.88 9.47L507.28 9.47L507.28 14.53L502.88 14.53M502.88 45.26L502.88 19.34L507.28 19.34L507.28 45.26L502.88 45.26ZM513.96 45.26L513.96 19.34L517.92 19.34L517.92 23.02Q520.78 18.75 526.17 18.75Q528.52 18.75 530.48 19.59Q532.45 20.43 533.42 21.80Q534.40 23.17 534.79 25.05Q535.03 26.27 535.03 29.32L535.03 45.26L530.64 45.26L530.64 29.49Q530.64 26.81 530.13 25.48Q529.61 24.15 528.31 23.35Q527.00 22.56 525.24 22.56Q522.44 22.56 520.40 24.34Q518.36 26.12 518.36 31.10L518.36 45.26L513.96 45.26ZM540.97 47.41L545.24 48.05Q545.51 50.02 546.73 50.93Q548.36 52.15 551.20 52.15Q554.25 52.15 555.91 50.93Q557.57 49.71 558.15 47.51Q558.50 46.17 558.47 41.87Q555.59 45.26 551.29 45.26Q545.95 45.26 543.02 41.41Q540.09 37.55 540.09 32.15Q540.09 28.44 541.43 25.31Q542.77 22.17 545.32 20.46Q547.88 18.75 551.32 18.75Q555.91 18.75 558.89 22.46L558.89 19.34L562.94 19.34L562.94 41.75Q562.94 47.80 561.71 50.33Q560.47 52.86 557.80 54.32Q555.13 55.79 551.22 55.79Q546.58 55.79 543.73 53.70Q540.87 51.61 540.97 47.41M544.60 31.84Q544.60 36.94 546.63 39.28Q548.66 41.63 551.71 41.63Q554.74 41.63 556.79 39.29Q558.84 36.96 558.84 31.98Q558.84 27.22 556.73 24.80Q554.61 22.39 551.64 22.39Q548.71 22.39 546.66 24.77Q544.60 27.15 544.60 31.84ZM584.11 45.26L584.11 9.47L599.98 9.47Q604.76 9.47 607.25 10.44Q609.74 11.40 611.23 13.84Q612.72 16.28 612.72 19.24Q612.72 23.05 610.25 25.66Q607.79 28.27 602.64 28.98Q604.52 29.88 605.49 30.76Q607.57 32.67 609.42 35.52L615.65 45.26L609.69 45.26L604.96 37.82Q602.88 34.59 601.54 32.89Q600.20 31.18 599.13 30.49Q598.07 29.81 596.97 29.54Q596.17 29.37 594.34 29.37L588.84 29.37L588.84 45.26L584.11 45.26M588.84 25.27L599.02 25.27Q602.27 25.27 604.10 24.60Q605.93 23.93 606.88 22.45Q607.84 20.97 607.84 19.24Q607.84 16.70 605.99 15.06Q604.15 13.43 600.17 13.43L588.84 13.43L588.84 25.27ZM637.33 36.91L641.87 37.48Q640.80 41.46 637.89 43.65Q634.99 45.85 630.47 45.85Q624.78 45.85 621.45 42.35Q618.12 38.84 618.12 32.52Q618.12 25.98 621.48 22.36Q624.85 18.75 630.22 18.75Q635.42 18.75 638.72 22.29Q642.02 25.83 642.02 32.25Q642.02 32.64 641.99 33.42L622.66 33.42Q622.90 37.70 625.07 39.97Q627.25 42.24 630.49 42.24Q632.91 42.24 634.62 40.97Q636.33 39.70 637.33 36.91M622.90 29.81L637.38 29.81Q637.08 26.54 635.72 24.90Q633.62 22.36 630.27 22.36Q627.25 22.36 625.18 24.39Q623.12 26.42 622.90 29.81ZM664.31 42.07Q661.87 44.14 659.61 45.00Q657.35 45.85 654.76 45.85Q650.49 45.85 648.19 43.76Q645.90 41.67 645.90 38.43Q645.90 36.52 646.77 34.95Q647.63 33.37 649.04 32.42Q650.44 31.47 652.20 30.98Q653.49 30.64 656.10 30.32Q661.43 29.69 663.94 28.81Q663.96 27.91 663.96 27.66Q663.96 24.98 662.72 23.88Q661.04 22.39 657.71 22.39Q654.61 22.39 653.14 23.47Q651.66 24.56 650.95 27.32L646.66 26.73Q647.24 23.97 648.58 22.28Q649.93 20.58 652.47 19.67Q655.00 18.75 658.35 18.75Q661.67 18.75 663.75 19.53Q665.82 20.31 666.80 21.50Q667.77 22.68 668.16 24.49Q668.38 25.61 668.38 28.54L668.38 34.40Q668.38 40.53 668.66 42.15Q668.95 43.77 669.78 45.26L665.19 45.26Q664.50 43.90 664.31 42.07M663.94 32.25Q661.55 33.23 656.76 33.91Q654.05 34.30 652.93 34.79Q651.81 35.28 651.20 36.22Q650.59 37.16 650.59 38.31Q650.59 40.06 651.92 41.24Q653.25 42.41 655.81 42.41Q658.35 42.41 660.33 41.30Q662.30 40.19 663.23 38.26Q663.94 36.77 663.94 33.86L663.94 32.25ZM692.11 35.77L696.44 36.33Q695.73 40.80 692.81 43.32Q689.89 45.85 685.64 45.85Q680.32 45.85 677.09 42.37Q673.85 38.89 673.85 32.40Q673.85 28.20 675.24 25.05Q676.64 21.90 679.48 20.32Q682.32 18.75 685.67 18.75Q689.89 18.75 692.58 20.89Q695.26 23.02 696.02 26.95L691.75 27.61Q691.14 25 689.59 23.68Q688.04 22.36 685.84 22.36Q682.52 22.36 680.44 24.74Q678.37 27.12 678.37 32.28Q678.37 37.50 680.37 39.87Q682.37 42.24 685.60 42.24Q688.18 42.24 689.92 40.65Q691.65 39.06 692.11 35.77ZM709.79 41.33L710.42 45.21Q708.57 45.61 707.10 45.61Q704.71 45.61 703.39 44.85Q702.08 44.09 701.54 42.86Q701.00 41.63 701.00 37.67L701.00 22.75L697.78 22.75L697.78 19.34L701.00 19.34L701.00 12.92L705.37 10.28L705.37 19.34L709.79 19.34L709.79 22.75L705.37 22.75L705.37 37.92Q705.37 39.79 705.60 40.33Q705.83 40.87 706.36 41.19Q706.88 41.50 707.86 41.50Q708.59 41.50 709.79 41.33ZM726.12 35.11L730.40 34.52Q730.57 38.62 731.93 40.14Q733.30 41.65 735.72 41.65Q737.50 41.65 738.79 40.83Q740.09 40.01 740.58 38.61Q741.06 37.21 741.06 34.13L741.06 9.47L745.80 9.47L745.80 33.86Q745.80 38.35 744.71 40.82Q743.63 43.29 741.27 44.58Q738.92 45.87 735.74 45.87Q731.03 45.87 728.53 43.16Q726.03 40.45 726.12 35.11ZM751.93 33.76L756.40 33.37Q756.71 36.06 757.87 37.78Q759.03 39.50 761.47 40.56Q763.92 41.63 766.97 41.63Q769.68 41.63 771.75 40.82Q773.83 40.01 774.84 38.61Q775.85 37.21 775.85 35.55Q775.85 33.86 774.88 32.60Q773.90 31.35 771.66 30.49Q770.21 29.93 765.28 28.75Q760.35 27.56 758.37 26.51Q755.81 25.17 754.55 23.18Q753.30 21.19 753.30 18.73Q753.30 16.02 754.83 13.66Q756.37 11.30 759.33 10.08Q762.28 8.86 765.89 8.86Q769.87 8.86 772.91 10.14Q775.95 11.43 777.59 13.92Q779.22 16.41 779.35 19.56L774.80 19.90Q774.44 16.50 772.33 14.77Q770.21 13.04 766.09 13.04Q761.79 13.04 759.83 14.61Q757.86 16.19 757.86 18.41Q757.86 20.34 759.25 21.58Q760.62 22.83 766.39 24.13Q772.17 25.44 774.32 26.42Q777.44 27.86 778.93 30.07Q780.42 32.28 780.42 35.16Q780.42 38.01 778.78 40.54Q777.15 43.07 774.08 44.47Q771.02 45.87 767.19 45.87Q762.33 45.87 759.05 44.46Q755.76 43.04 753.89 40.20Q752.03 37.35 751.93 33.76ZM783.25 45.26L797.09 26.61L784.89 9.47L790.53 9.47L797.02 18.65Q799.05 21.51 799.90 23.05Q801.10 21.09 802.73 18.97L809.94 9.47L815.09 9.47L802.51 26.34L816.06 45.26L810.21 45.26L801.20 32.50Q800.44 31.40 799.63 30.10Q798.44 32.06 797.92 32.79L788.94 45.26L783.25 45.26ZM820.83 45.26L820.83 40.26L825.83 40.26L825.83 45.26Q825.83 48.02 824.85 49.72Q823.88 51.42 821.75 52.34L820.53 50.46Q821.92 49.85 822.58 48.67Q823.24 47.49 823.32 45.26L820.83 45.26ZM848.10 45.26L848.10 9.47L863.96 9.47Q868.75 9.47 871.24 10.44Q873.73 11.40 875.22 13.84Q876.71 16.28 876.71 19.24Q876.71 23.05 874.24 25.66Q871.78 28.27 866.63 28.98Q868.51 29.88 869.48 30.76Q871.56 32.67 873.41 35.52L879.64 45.26L873.68 45.26L868.95 37.82Q866.87 34.59 865.53 32.89Q864.18 31.18 863.12 30.49Q862.06 29.81 860.96 29.54Q860.16 29.37 858.33 29.37L852.83 29.37L852.83 45.26L848.10 45.26M852.83 25.27L863.01 25.27Q866.26 25.27 868.09 24.60Q869.92 23.93 870.87 22.45Q871.83 20.97 871.83 19.24Q871.83 16.70 869.98 15.06Q868.14 13.43 864.16 13.43L852.83 13.43L852.83 25.27ZM901.32 36.91L905.86 37.48Q904.79 41.46 901.88 43.65Q898.97 45.85 894.46 45.85Q888.77 45.85 885.44 42.35Q882.10 38.84 882.10 32.52Q882.10 25.98 885.47 22.36Q888.84 18.75 894.21 18.75Q899.41 18.75 902.71 22.29Q906.01 25.83 906.01 32.25Q906.01 32.64 905.98 33.42L886.65 33.42Q886.89 37.70 889.06 39.97Q891.24 42.24 894.48 42.24Q896.90 42.24 898.61 40.97Q900.32 39.70 901.32 36.91M886.89 29.81L901.37 29.81Q901.07 26.54 899.71 24.90Q897.61 22.36 894.26 22.36Q891.24 22.36 889.17 24.39Q887.11 26.42 886.89 29.81ZM928.30 42.07Q925.85 44.14 923.60 45.00Q921.34 45.85 918.75 45.85Q914.48 45.85 912.18 43.76Q909.89 41.67 909.89 38.43Q909.89 36.52 910.75 34.95Q911.62 33.37 913.02 32.42Q914.43 31.47 916.19 30.98Q917.48 30.64 920.09 30.32Q925.42 29.69 927.93 28.81Q927.95 27.91 927.95 27.66Q927.95 24.98 926.71 23.88Q925.02 22.39 921.70 22.39Q918.60 22.39 917.13 23.47Q915.65 24.56 914.94 27.32L910.64 26.73Q911.23 23.97 912.57 22.28Q913.92 20.58 916.46 19.67Q918.99 18.75 922.34 18.75Q925.66 18.75 927.73 19.53Q929.81 20.31 930.79 21.50Q931.76 22.68 932.15 24.49Q932.37 25.61 932.37 28.54L932.37 34.40Q932.37 40.53 932.65 42.15Q932.93 43.77 933.76 45.26L929.17 45.26Q928.49 43.90 928.30 42.07M927.93 32.25Q925.54 33.23 920.75 33.91Q918.04 34.30 916.92 34.79Q915.80 35.28 915.19 36.22Q914.58 37.16 914.58 38.31Q914.58 40.06 915.91 41.24Q917.24 42.41 919.80 42.41Q922.34 42.41 924.32 41.30Q926.29 40.19 927.22 38.26Q927.93 36.77 927.93 33.86L927.93 32.25ZM956.10 35.77L960.42 36.33Q959.72 40.80 956.80 43.32Q953.88 45.85 949.63 45.85Q944.31 45.85 941.08 42.37Q937.84 38.89 937.84 32.40Q937.84 28.20 939.23 25.05Q940.63 21.90 943.47 20.32Q946.31 18.75 949.66 18.75Q953.88 18.75 956.57 20.89Q959.25 23.02 960.01 26.95L955.74 27.61Q955.13 25 953.58 23.68Q952.03 22.36 949.83 22.36Q946.51 22.36 944.43 24.74Q942.36 27.12 942.36 32.28Q942.36 37.50 944.36 39.87Q946.36 42.24 949.58 42.24Q952.17 42.24 953.91 40.65Q955.64 39.06 956.10 35.77ZM973.78 41.33L974.41 45.21Q972.56 45.61 971.09 45.61Q968.70 45.61 967.38 44.85Q966.06 44.09 965.53 42.86Q964.99 41.63 964.99 37.67L964.99 22.75L961.77 22.75L961.77 19.34L964.99 19.34L964.99 12.92L969.36 10.28L969.36 19.34L973.78 19.34L973.78 22.75L969.36 22.75L969.36 37.92Q969.36 39.79 969.59 40.33Q969.82 40.87 970.35 41.19Q970.87 41.50 971.85 41.50Q972.58 41.50 973.78 41.33ZM1000.73 45.26L1000.73 13.70L988.94 13.70L988.94 9.47L1017.31 9.47L1017.31 13.70L1005.47 13.70L1005.47 45.26L1000.73 45.26ZM1020.56 33.76L1025.02 33.37Q1025.34 36.06 1026.50 37.78Q1027.66 39.50 1030.10 40.56Q1032.54 41.63 1035.60 41.63Q1038.31 41.63 1040.38 40.82Q1042.46 40.01 1043.47 38.61Q1044.48 37.21 1044.48 35.55Q1044.48 33.86 1043.51 32.60Q1042.53 31.35 1040.28 30.49Q1038.84 29.93 1033.91 28.75Q1028.98 27.56 1027.00 26.51Q1024.44 25.17 1023.18 23.18Q1021.92 21.19 1021.92 18.73Q1021.92 16.02 1023.46 13.66Q1025 11.30 1027.95 10.08Q1030.91 8.86 1034.52 8.86Q1038.50 8.86 1041.54 10.14Q1044.58 11.43 1046.22 13.92Q1047.85 16.41 1047.97 19.56L1043.43 19.90Q1043.07 16.50 1040.95 14.77Q1038.84 13.04 1034.72 13.04Q1030.42 13.04 1028.45 14.61Q1026.49 16.19 1026.49 18.41Q1026.49 20.34 1027.88 21.58Q1029.25 22.83 1035.02 24.13Q1040.80 25.44 1042.94 26.42Q1046.07 27.86 1047.56 30.07Q1049.05 32.28 1049.05 35.16Q1049.05 38.01 1047.41 40.54Q1045.78 43.07 1042.71 44.47Q1039.65 45.87 1035.82 45.87Q1030.96 45.87 1027.67 44.46Q1024.39 43.04 1022.52 40.20Q1020.65 37.35 1020.56 33.76ZM1051.88 45.26L1065.72 26.61L1053.52 9.47L1059.16 9.47L1065.65 18.65Q1067.68 21.51 1068.53 23.05Q1069.73 21.09 1071.36 18.97L1078.56 9.47L1083.72 9.47L1071.14 26.34L1084.69 45.26L1078.83 45.26L1069.82 32.50Q1069.07 31.40 1068.26 30.10Q1067.07 32.06 1066.55 32.79L1057.57 45.26L1051.88 45.26ZM1089.45 45.26L1089.45 40.26L1094.46 40.26L1094.46 45.26Q1094.46 48.02 1093.48 49.72Q1092.50 51.42 1090.38 52.34L1089.16 50.46Q1090.55 49.85 1091.21 48.67Q1091.87 47.49 1091.94 45.26L1089.45 45.26Z"/></g><g transform="translate(0, 242.3828125)"><path d="M0 45.26L0 9.47L13.50 9.47Q17.07 9.47 18.95 9.81Q21.58 10.25 23.36 11.49Q25.15 12.72 26.23 14.94Q27.32 17.16 27.32 19.82Q27.32 24.39 24.41 27.55Q21.51 30.71 13.92 30.71L4.74 30.71L4.74 45.26L0 45.26M4.74 26.49L13.99 26.49Q18.58 26.49 20.51 24.78Q22.44 23.07 22.44 19.97Q22.44 17.72 21.30 16.13Q20.17 14.53 18.31 14.01Q17.11 13.70 13.89 13.70L4.74 13.70L4.74 26.49ZM33.35 45.26L33.35 9.47L45.68 9.47Q49.85 9.47 52.05 9.99Q55.13 10.69 57.30 12.55Q60.13 14.94 61.54 18.66Q62.94 22.39 62.94 27.17Q62.94 31.25 61.99 34.40Q61.04 37.55 59.55 39.61Q58.06 41.67 56.29 42.86Q54.52 44.04 52.01 44.65Q49.51 45.26 46.26 45.26L33.35 45.26M38.09 41.04L45.73 41.04Q49.27 41.04 51.28 40.38Q53.30 39.72 54.49 38.53Q56.18 36.84 57.12 34.00Q58.06 31.15 58.06 27.10Q58.06 21.48 56.21 18.47Q54.37 15.45 51.73 14.43Q49.83 13.70 45.61 13.70L38.09 13.70L38.09 41.04ZM69.70 45.26L69.70 9.47L93.85 9.47L93.85 13.70L74.44 13.70L74.44 24.78L91.24 24.78L91.24 29.00L74.44 29.00L74.44 45.26L69.70 45.26ZM95.04 45.26L95.04 40.26L100.05 40.26L100.05 45.26Q100.05 48.02 99.07 49.72Q98.10 51.42 95.97 52.34L94.75 50.46Q96.14 49.85 96.80 48.67Q97.46 47.49 97.53 45.26L95.04 45.26ZM122.24 45.26L122.24 9.47L135.74 9.47Q139.31 9.47 141.19 9.81Q143.82 10.25 145.61 11.49Q147.39 12.72 148.47 14.94Q149.56 17.16 149.56 19.82Q149.56 24.39 146.66 27.55Q143.75 30.71 136.16 30.71L126.98 30.71L126.98 45.26L122.24 45.26M126.98 26.49L136.23 26.49Q140.82 26.49 142.75 24.78Q144.68 23.07 144.68 19.97Q144.68 17.72 143.54 16.13Q142.41 14.53 140.55 14.01Q139.36 13.70 136.13 13.70L126.98 13.70L126.98 26.49ZM155.54 45.26L155.54 9.47L160.40 9.47L179.20 37.57L179.20 9.47L183.74 9.47L183.74 45.26L178.88 45.26L160.08 17.14L160.08 45.26L155.54 45.26ZM208.45 31.23L208.45 27.03L223.61 27.00L223.61 40.28Q220.12 43.07 216.41 44.47Q212.70 45.87 208.79 45.87Q203.52 45.87 199.21 43.62Q194.90 41.36 192.70 37.08Q190.50 32.81 190.50 27.54Q190.50 22.31 192.69 17.79Q194.87 13.26 198.97 11.06Q203.08 8.86 208.42 8.86Q212.30 8.86 215.44 10.12Q218.58 11.38 220.36 13.62Q222.14 15.87 223.07 19.48L218.80 20.65Q217.99 17.92 216.80 16.36Q215.60 14.79 213.38 13.85Q211.16 12.92 208.45 12.92Q205.20 12.92 202.83 13.90Q200.46 14.89 199.01 16.50Q197.56 18.12 196.75 20.04Q195.39 23.36 195.39 27.25Q195.39 32.03 197.03 35.25Q198.68 38.48 201.83 40.04Q204.98 41.60 208.52 41.60Q211.60 41.60 214.53 40.42Q217.46 39.23 218.97 37.89L218.97 31.23L208.45 31.23ZM231.18 45.26L231.18 40.26L236.18 40.26L236.18 45.26Q236.18 48.02 235.21 49.72Q234.23 51.42 232.10 52.34L230.88 50.46Q232.28 49.85 232.93 48.67Q233.59 47.49 233.67 45.26L231.18 45.26ZM256.18 32.30Q256.18 25.10 260.18 21.63Q263.53 18.75 268.33 18.75Q273.68 18.75 277.08 22.25Q280.47 25.76 280.47 31.93Q280.47 36.94 278.97 39.81Q277.47 42.68 274.60 44.26Q271.73 45.85 268.33 45.85Q262.89 45.85 259.53 42.36Q256.18 38.87 256.18 32.30M260.69 32.30Q260.69 37.28 262.87 39.76Q265.04 42.24 268.33 42.24Q271.61 42.24 273.78 39.75Q275.95 37.26 275.95 32.15Q275.95 27.34 273.77 24.87Q271.58 22.39 268.33 22.39Q265.04 22.39 262.87 24.85Q260.69 27.32 260.69 32.30ZM285.57 45.26L285.57 19.34L289.53 19.34L289.53 23.27Q291.04 20.51 292.32 19.63Q293.60 18.75 295.14 18.75Q297.36 18.75 299.66 20.17L298.14 24.24Q296.53 23.29 294.92 23.29Q293.48 23.29 292.33 24.16Q291.19 25.02 290.70 26.56Q289.97 28.91 289.97 31.69L289.97 45.26L285.57 45.26ZM315.11 33.76L319.58 33.37Q319.90 36.06 321.06 37.78Q322.22 39.50 324.66 40.56Q327.10 41.63 330.15 41.63Q332.86 41.63 334.94 40.82Q337.01 40.01 338.02 38.61Q339.04 37.21 339.04 35.55Q339.04 33.86 338.06 32.60Q337.08 31.35 334.84 30.49Q333.40 29.93 328.47 28.75Q323.54 27.56 321.56 26.51Q318.99 25.17 317.74 23.18Q316.48 21.19 316.48 18.73Q316.48 16.02 318.02 13.66Q319.56 11.30 322.51 10.08Q325.46 8.86 329.08 8.86Q333.06 8.86 336.10 10.14Q339.14 11.43 340.77 13.92Q342.41 16.41 342.53 19.56L337.99 19.90Q337.62 16.50 335.51 14.77Q333.40 13.04 329.27 13.04Q324.98 13.04 323.01 14.61Q321.04 16.19 321.04 18.41Q321.04 20.34 322.44 21.58Q323.80 22.83 329.58 24.13Q335.35 25.44 337.50 26.42Q340.63 27.86 342.11 30.07Q343.60 32.28 343.60 35.16Q343.60 38.01 341.97 40.54Q340.33 43.07 337.27 44.47Q334.20 45.87 330.37 45.87Q325.51 45.87 322.23 44.46Q318.95 43.04 317.08 40.20Q315.21 37.35 315.11 33.76ZM360.30 45.26L346.44 9.47L351.56 9.47L360.86 35.47Q361.99 38.60 362.74 41.33Q363.57 38.40 364.67 35.47L374.34 9.47L379.17 9.47L365.16 45.26L360.30 45.26ZM400.17 31.23L400.17 27.03L415.33 27.00L415.33 40.28Q411.84 43.07 408.13 44.47Q404.42 45.87 400.51 45.87Q395.24 45.87 390.93 43.62Q386.62 41.36 384.42 37.08Q382.23 32.81 382.23 27.54Q382.23 22.31 384.41 17.79Q386.60 13.26 390.70 11.06Q394.80 8.86 400.15 8.86Q404.03 8.86 407.17 10.12Q410.30 11.38 412.08 13.62Q413.87 15.87 414.79 19.48L410.52 20.65Q409.72 17.92 408.52 16.36Q407.32 14.79 405.10 13.85Q402.88 12.92 400.17 12.92Q396.92 12.92 394.56 13.90Q392.19 14.89 390.73 16.50Q389.28 18.12 388.48 20.04Q387.11 23.36 387.11 27.25Q387.11 32.03 388.76 35.25Q390.41 38.48 393.55 40.04Q396.70 41.60 400.24 41.60Q403.32 41.60 406.25 40.42Q409.18 39.23 410.69 37.89L410.69 31.23L400.17 31.23ZM423.00 45.26L423.00 40.26L428.00 40.26L428.00 45.26L423.00 45.26Z"/></g></g></svg>