<svg xmlns="http://www.w3.org/2000/svg" viewBox="0 8.859999656677246 530.8099975585938 158.2313995361328" data-asc="0.9052734375" width="530.8099975585938" height="158.2313995361328"><defs/><g fill="#000000"><g transform="translate(0, 0)"><path d="M0 45.26L0 9.47L4.74 9.47L4.74 24.17L23.34 24.17L23.34 9.47L28.08 9.47L28.08 45.26L23.34 45.26L23.34 28.39L4.74 28.39L4.74 45.26L0 45.26ZM53.15 36.91L57.69 37.48Q56.62 41.46 53.71 43.65Q50.81 45.85 46.29 45.85Q40.60 45.85 37.27 42.35Q33.94 38.84 33.94 32.52Q33.94 25.98 37.30 22.36Q40.67 18.75 46.04 18.75Q51.25 18.75 54.54 22.29Q57.84 25.83 57.84 32.25Q57.84 32.64 57.81 33.42L38.48 33.42Q38.72 37.70 40.89 39.97Q43.07 42.24 46.31 42.24Q48.73 42.24 50.44 40.97Q52.15 39.70 53.15 36.91M38.72 29.81L53.20 29.81Q52.91 26.54 51.54 24.90Q49.44 22.36 46.09 22.36Q43.07 22.36 41.00 24.39Q38.94 26.42 38.72 29.81ZM63.16 45.26L63.16 19.34L67.11 19.34L67.11 23.27Q68.63 20.51 69.91 19.63Q71.19 18.75 72.73 18.75Q74.95 18.75 77.25 20.17L75.73 24.24Q74.12 23.29 72.51 23.29Q71.07 23.29 69.92 24.16Q68.77 25.02 68.29 26.56Q67.55 28.91 67.55 31.69L67.55 45.26L63.16 45.26ZM97.61 36.91L102.15 37.48Q101.07 41.46 98.17 43.65Q95.26 45.85 90.75 45.85Q85.06 45.85 81.73 42.35Q78.39 38.84 78.39 32.52Q78.39 25.98 81.76 22.36Q85.13 18.75 90.50 18.75Q95.70 18.75 99.00 22.29Q102.29 25.83 102.29 32.25Q102.29 32.64 102.27 33.42L82.93 33.42Q83.18 37.70 85.35 39.97Q87.52 42.24 90.77 42.24Q93.19 42.24 94.90 40.97Q96.61 39.70 97.61 36.91M83.18 29.81L97.66 29.81Q97.36 26.54 96.00 24.90Q93.90 22.36 90.55 22.36Q87.52 22.36 85.46 24.39Q83.40 26.42 83.18 29.81ZM121.58 14.53L121.58 9.47L125.98 9.47L125.98 14.53L121.58 14.53M121.58 45.26L121.58 19.34L125.98 19.34L125.98 45.26L121.58 45.26ZM130.91 37.52L135.25 36.84Q135.62 39.45 137.29 40.84Q138.96 42.24 141.97 42.24Q145.00 42.24 146.46 41.00Q147.92 39.77 147.92 38.11Q147.92 36.62 146.63 35.77Q145.73 35.18 142.14 34.28Q137.30 33.06 135.44 32.17Q133.57 31.27 132.60 29.70Q131.64 28.13 131.64 26.22Q131.64 24.49 132.43 23.01Q133.23 21.53 134.59 20.56Q135.62 19.80 137.39 19.27Q139.16 18.75 141.19 18.75Q144.24 18.75 146.55 19.63Q148.85 20.51 149.95 22.01Q151.05 23.51 151.46 26.03L147.17 26.61Q146.88 24.61 145.47 23.49Q144.07 22.36 141.50 22.36Q138.48 22.36 137.18 23.36Q135.89 24.37 135.89 25.71Q135.89 26.56 136.43 27.25Q136.96 27.95 138.11 28.42Q138.77 28.66 141.99 29.54Q146.66 30.79 148.50 31.58Q150.34 32.37 151.39 33.89Q152.44 35.40 152.44 37.65Q152.44 39.84 151.16 41.78Q149.88 43.73 147.46 44.79Q145.04 45.85 141.99 45.85Q136.94 45.85 134.29 43.75Q131.64 41.65 130.91 37.52ZM171.46 45.26L171.46 9.47L175.85 9.47L175.85 45.26L171.46 45.26ZM182.69 14.53L182.69 9.47L187.08 9.47L187.08 14.53L182.69 14.53M182.69 45.26L182.69 19.34L187.08 19.34L187.08 45.26L182.69 45.26ZM193.77 45.26L193.77 19.34L197.73 19.34L197.73 23.02Q200.59 18.75 205.98 18.75Q208.33 18.75 210.29 19.59Q212.26 20.43 213.23 21.80Q214.21 23.17 214.60 25.05Q214.84 26.27 214.84 29.32L214.84 45.26L210.45 45.26L210.45 29.49Q210.45 26.81 209.94 25.48Q209.42 24.15 208.12 23.35Q206.81 22.56 205.05 22.56Q202.25 22.56 200.21 24.34Q198.17 26.12 198.17 31.10L198.17 45.26L193.77 45.26ZM239.33 36.91L243.87 37.48Q242.80 41.46 239.89 43.65Q236.99 45.85 232.47 45.85Q226.78 45.85 223.45 42.35Q220.12 38.84 220.12 32.52Q220.12 25.98 223.49 22.36Q226.86 18.75 232.23 18.75Q237.43 18.75 240.72 22.29Q244.02 25.83 244.02 32.25Q244.02 32.64 243.99 33.42L224.66 33.42Q224.90 37.70 227.08 39.97Q229.25 42.24 232.50 42.24Q234.91 42.24 236.62 40.97Q238.33 39.70 239.33 36.91M224.90 29.81L239.38 29.81Q239.09 26.54 237.72 24.90Q235.62 22.36 232.28 22.36Q229.25 22.36 227.19 24.39Q225.12 26.42 224.90 29.81ZM278.61 45.26L274.22 45.26L274.22 17.26Q272.63 18.77 270.06 20.29Q267.48 21.80 265.43 22.56L265.43 18.31Q269.12 16.58 271.88 14.11Q274.63 11.65 275.78 9.33L278.61 9.33L278.61 45.26ZM303.34 32.30Q303.34 25.10 307.35 21.63Q310.69 18.75 315.50 18.75Q320.85 18.75 324.24 22.25Q327.64 25.76 327.64 31.93Q327.64 36.94 326.14 39.81Q324.63 42.68 321.77 44.26Q318.90 45.85 315.50 45.85Q310.06 45.85 306.70 42.36Q303.34 38.87 303.34 32.30M307.86 32.30Q307.86 37.28 310.03 39.76Q312.21 42.24 315.50 42.24Q318.77 42.24 320.95 39.75Q323.12 37.26 323.12 32.15Q323.12 27.34 320.94 24.87Q318.75 22.39 315.50 22.39Q312.21 22.39 310.03 24.85Q307.86 27.32 307.86 32.30ZM333.84 45.26L333.84 22.75L329.96 22.75L329.96 19.34L333.84 19.34L333.84 16.58Q333.84 13.96 334.30 12.70Q334.94 10.99 336.54 9.92Q338.13 8.86 341.02 8.86Q342.87 8.86 345.12 9.30L344.46 13.13Q343.09 12.89 341.87 12.89Q339.87 12.89 339.04 13.75Q338.21 14.60 338.21 16.94L338.21 19.34L343.26 19.34L343.26 22.75L338.21 22.75L338.21 45.26L333.84 45.26ZM370.17 41.33L370.80 45.21Q368.95 45.61 367.48 45.61Q365.09 45.61 363.77 44.85Q362.45 44.09 361.91 42.86Q361.38 41.63 361.38 37.67L361.38 22.75L358.15 22.75L358.15 19.34L361.38 19.34L361.38 12.92L365.75 10.28L365.75 19.34L370.17 19.34L370.17 22.75L365.75 22.75L365.75 37.92Q365.75 39.79 365.98 40.33Q366.21 40.87 366.74 41.19Q367.26 41.50 368.24 41.50Q368.97 41.50 370.17 41.33ZM374.46 45.26L374.46 9.47L378.86 9.47L378.86 22.31Q381.93 18.75 386.62 18.75Q389.50 18.75 391.63 19.89Q393.75 21.02 394.67 23.02Q395.58 25.02 395.58 28.83L395.58 45.26L391.19 45.26L391.19 28.83Q391.19 25.54 389.76 24.04Q388.33 22.53 385.72 22.53Q383.76 22.53 382.04 23.55Q380.32 24.56 379.59 26.29Q378.86 28.03 378.86 31.08L378.86 45.26L374.46 45.26ZM420.02 36.91L424.56 37.48Q423.49 41.46 420.58 43.65Q417.68 45.85 413.16 45.85Q407.47 45.85 404.14 42.35Q400.81 38.84 400.81 32.52Q400.81 25.98 404.17 22.36Q407.54 18.75 412.92 18.75Q418.12 18.75 421.41 22.29Q424.71 25.83 424.71 32.25Q424.71 32.64 424.68 33.42L405.35 33.42Q405.59 37.70 407.76 39.97Q409.94 42.24 413.18 42.24Q415.60 42.24 417.31 40.97Q419.02 39.70 420.02 36.91M405.59 29.81L420.07 29.81Q419.78 26.54 418.41 24.90Q416.31 22.36 412.96 22.36Q409.94 22.36 407.87 24.39Q405.81 26.42 405.59 29.81ZM453.56 41.33L454.20 45.21Q452.34 45.61 450.88 45.61Q448.49 45.61 447.17 44.85Q445.85 44.09 445.31 42.86Q444.78 41.63 444.78 37.67L444.78 22.75L441.55 22.75L441.55 19.34L444.78 19.34L444.78 12.92L449.15 10.28L449.15 19.34L453.56 19.34L453.56 22.75L449.15 22.75L449.15 37.92Q449.15 39.79 449.38 40.33Q449.61 40.87 450.13 41.19Q450.66 41.50 451.64 41.50Q452.37 41.50 453.56 41.33ZM475.61 36.91L480.15 37.48Q479.08 41.46 476.17 43.65Q473.27 45.85 468.75 45.85Q463.06 45.85 459.73 42.35Q456.40 38.84 456.40 32.52Q456.40 25.98 459.77 22.36Q463.13 18.75 468.51 18.75Q473.71 18.75 477.00 22.29Q480.30 25.83 480.30 32.25Q480.30 32.64 480.27 33.42L460.94 33.42Q461.18 37.70 463.35 39.97Q465.53 42.24 468.77 42.24Q471.19 42.24 472.90 40.97Q474.61 39.70 475.61 36.91M461.18 29.81L475.66 29.81Q475.37 26.54 474.00 24.90Q471.90 22.36 468.55 22.36Q465.53 22.36 463.46 24.39Q461.40 26.42 461.18 29.81ZM482.74 45.26L492.21 31.79L483.45 19.34L488.94 19.34L492.92 25.42Q494.04 27.15 494.73 28.32Q495.80 26.71 496.70 25.46L501.07 19.34L506.32 19.34L497.36 31.54L507.01 45.26L501.61 45.26L496.29 37.21L494.87 35.03L488.06 45.26L482.74 45.26ZM520.26 41.33L520.90 45.21Q519.04 45.61 517.58 45.61Q515.19 45.61 513.87 44.85Q512.55 44.09 512.01 42.86Q511.47 41.63 511.47 37.67L511.47 22.75L508.25 22.75L508.25 19.34L511.47 19.34L511.47 12.92L515.84 10.28L515.84 19.34L520.26 19.34L520.26 22.75L515.84 22.75L515.84 37.92Q515.84 39.79 516.08 40.33Q516.31 40.87 516.83 41.19Q517.36 41.50 518.33 41.50Q519.07 41.50 520.26 41.33ZM525.81 45.26L525.81 40.26L530.81 40.26L530.81 45.26L525.81 45.26Z"/></g><g transform="translate(0, 60.595703125)"><path d="M0 45.26L0 9.47L4.74 9.47L4.74 24.17L23.34 24.17L23.34 9.47L28.08 9.47L28.08 45.26L23.34 45.26L23.34 28.39L4.74 28.39L4.74 45.26L0 45.26ZM53.15 36.91L57.69 37.48Q56.62 41.46 53.71 43.65Q50.81 45.85 46.29 45.85Q40.60 45.85 37.27 42.35Q33.94 38.84 33.94 32.52Q33.94 25.98 37.30 22.36Q40.67 18.75 46.04 18.75Q51.25 18.75 54.54 22.29Q57.84 25.83 57.84 32.25Q57.84 32.64 57.81 33.42L38.48 33.42Q38.72 37.70 40.89 39.97Q43.07 42.24 46.31 42.24Q48.73 42.24 50.44 40.97Q52.15 39.70 53.15 36.91M38.72 29.81L53.20 29.81Q52.91 26.54 51.54 24.90Q49.44 22.36 46.09 22.36Q43.07 22.36 41.00 24.39Q38.94 26.42 38.72 29.81ZM63.16 45.26L63.16 19.34L67.11 19.34L67.11 23.27Q68.63 20.51 69.91 19.63Q71.19 18.75 72.73 18.75Q74.95 18.75 77.25 20.17L75.73 24.24Q74.12 23.29 72.51 23.29Q71.07 23.29 69.92 24.16Q68.77 25.02 68.29 26.56Q67.55 28.91 67.55 31.69L67.55 45.26L63.16 45.26ZM97.61 36.91L102.15 37.48Q101.07 41.46 98.17 43.65Q95.26 45.85 90.75 45.85Q85.06 45.85 81.73 42.35Q78.39 38.84 78.39 32.52Q78.39 25.98 81.76 22.36Q85.13 18.75 90.50 18.75Q95.70 18.75 99.00 22.29Q102.29 25.83 102.29 32.25Q102.29 32.64 102.27 33.42L82.93 33.42Q83.18 37.70 85.35 39.97Q87.52 42.24 90.77 42.24Q93.19 42.24 94.90 40.97Q96.61 39.70 97.61 36.91M83.18 29.81L97.66 29.81Q97.36 26.54 96.00 24.90Q93.90 22.36 90.55 22.36Q87.52 22.36 85.46 24.39Q83.40 26.42 83.18 29.81ZM121.58 14.53L121.58 9.47L125.98 9.47L125.98 14.53L121.58 14.53M121.58 45.26L121.58 19.34L125.98 19.34L125.98 45.26L121.58 45.26ZM130.91 37.52L135.25 36.84Q135.62 39.45 137.29 40.84Q138.96 42.24 141.97 42.24Q145.00 42.24 146.46 41.00Q147.92 39.77 147.92 38.11Q147.92 36.62 146.63 35.77Q145.73 35.18 142.14 34.28Q137.30 33.06 135.44 32.17Q133.57 31.27 132.60 29.70Q131.64 28.13 131.64 26.22Q131.64 24.49 132.43 23.01Q133.23 21.53 134.59 20.56Q135.62 19.80 137.39 19.27Q139.16 18.75 141.19 18.75Q144.24 18.75 146.55 19.63Q148.85 20.51 149.95 22.01Q151.05 23.51 151.46 26.03L147.17 26.61Q146.88 24.61 145.47 23.49Q144.07 22.36 141.50 22.36Q138.48 22.36 137.18 23.36Q135.89 24.37 135.89 25.71Q135.89 26.56 136.43 27.25Q136.96 27.95 138.11 28.42Q138.77 28.66 141.99 29.54Q146.66 30.79 148.50 31.58Q150.34 32.37 151.39 33.89Q152.44 35.40 152.44 37.65Q152.44 39.84 151.16 41.78Q149.88 43.73 147.46 44.79Q145.04 45.85 141.99 45.85Q136.94 45.85 134.29 43.75Q131.64 41.65 130.91 37.52ZM171.46 45.26L171.46 9.47L175.85 9.47L175.85 45.26L171.46 45.26ZM182.69 14.53L182.69 9.47L187.08 9.47L187.08 14.53L182.69 14.53M182.69 45.26L182.69 19.34L187.08 19.34L187.08 45.26L182.69 45.26ZM193.77 45.26L193.77 19.34L197.73 19.34L197.73 23.02Q200.59 18.75 205.98 18.75Q208.33 18.75 210.29 19.59Q212.26 20.43 213.23 21.80Q214.21 23.17 214.60 25.05Q214.84 26.27 214.84 29.32L214.84 45.26L210.45 45.26L210.45 29.49Q210.45 26.81 209.94 25.48Q209.42 24.15 208.12 23.35Q206.81 22.56 205.05 22.56Q202.25 22.56 200.21 24.34Q198.17 26.12 198.17 31.10L198.17 45.26L193.77 45.26ZM239.33 36.91L243.87 37.48Q242.80 41.46 239.89 43.65Q236.99 45.85 232.47 45.85Q226.78 45.85 223.45 42.35Q220.12 38.84 220.12 32.52Q220.12 25.98 223.49 22.36Q226.86 18.75 232.23 18.75Q237.43 18.75 240.72 22.29Q244.02 25.83 244.02 32.25Q244.02 32.64 243.99 33.42L224.66 33.42Q224.90 37.70 227.08 39.97Q229.25 42.24 232.50 42.24Q234.91 42.24 236.62 40.97Q238.33 39.70 239.33 36.91M224.90 29.81L239.38 29.81Q239.09 26.54 237.72 24.90Q235.62 22.36 232.28 22.36Q229.25 22.36 227.19 24.39Q225.12 26.42 224.90 29.81ZM285.16 41.04L285.16 45.26L261.50 45.26Q261.45 43.68 262.01 42.21Q262.92 39.79 264.90 37.45Q266.89 35.11 270.65 32.03Q276.49 27.25 278.54 24.45Q280.59 21.66 280.59 19.17Q280.59 16.55 278.72 14.76Q276.86 12.96 273.85 12.96Q270.68 12.96 268.77 14.87Q266.87 16.77 266.85 20.14L262.33 19.68Q262.79 14.62 265.82 11.98Q268.85 9.33 273.95 9.33Q279.10 9.33 282.10 12.18Q285.11 15.04 285.11 19.26Q285.11 21.41 284.23 23.49Q283.35 25.56 281.31 27.86Q279.27 30.15 274.54 34.16Q270.58 37.48 269.46 38.66Q268.33 39.84 267.60 41.04L285.16 41.04ZM303.34 32.30Q303.34 25.10 307.35 21.63Q310.69 18.75 315.50 18.75Q320.85 18.75 324.24 22.25Q327.64 25.76 327.64 31.93Q327.64 36.94 326.14 39.81Q324.63 42.68 321.77 44.26Q318.90 45.85 315.50 45.85Q310.06 45.85 306.70 42.36Q303.34 38.87 303.34 32.30M307.86 32.30Q307.86 37.28 310.03 39.76Q312.21 42.24 315.50 42.24Q318.77 42.24 320.95 39.75Q323.12 37.26 323.12 32.15Q323.12 27.34 320.94 24.87Q318.75 22.39 315.50 22.39Q312.21 22.39 310.03 24.85Q307.86 27.32 307.86 32.30ZM333.84 45.26L333.84 22.75L329.96 22.75L329.96 19.34L333.84 19.34L333.84 16.58Q333.84 13.96 334.30 12.70Q334.94 10.99 336.54 9.92Q338.13 8.86 341.02 8.86Q342.87 8.86 345.12 9.30L344.46 13.13Q343.09 12.89 341.87 12.89Q339.87 12.89 339.04 13.75Q338.21 14.60 338.21 16.94L338.21 19.34L343.26 19.34L343.26 22.75L338.21 22.75L338.21 45.26L333.84 45.26ZM370.17 41.33L370.80 45.21Q368.95 45.61 367.48 45.61Q365.09 45.61 363.77 44.85Q362.45 44.09 361.91 42.86Q361.38 41.63 361.38 37.67L361.38 22.75L358.15 22.75L358.15 19.34L361.38 19.34L361.38 12.92L365.75 10.28L365.75 19.34L370.17 19.34L370.17 22.75L365.75 22.75L365.75 37.92Q365.75 39.79 365.98 40.33Q366.21 40.87 366.74 41.19Q367.26 41.50 368.24 41.50Q368.97 41.50 370.17 41.33ZM374.46 45.26L374.46 9.47L378.86 9.47L378.86 22.31Q381.93 18.75 386.62 18.75Q389.50 18.75 391.63 19.89Q393.75 21.02 394.67 23.02Q395.58 25.02 395.58 28.83L395.58 45.26L391.19 45.26L391.19 28.83Q391.19 25.54 389.76 24.04Q388.33 22.53 385.72 22.53Q383.76 22.53 382.04 23.55Q380.32 24.56 379.59 26.29Q378.86 28.03 378.86 31.08L378.86 45.26L374.46 45.26ZM420.02 36.91L424.56 37.48Q423.49 41.46 420.58 43.65Q417.68 45.85 413.16 45.85Q407.47 45.85 404.14 42.35Q400.81 38.84 400.81 32.52Q400.81 25.98 404.17 22.36Q407.54 18.75 412.92 18.75Q418.12 18.75 421.41 22.29Q424.71 25.83 424.71 32.25Q424.71 32.64 424.68 33.42L405.35 33.42Q405.59 37.70 407.76 39.97Q409.94 42.24 413.18 42.24Q415.60 42.24 417.31 40.97Q419.02 39.70 420.02 36.91M405.59 29.81L420.07 29.81Q419.78 26.54 418.41 24.90Q416.31 22.36 412.96 22.36Q409.94 22.36 407.87 24.39Q405.81 26.42 405.59 29.81ZM453.56 41.33L454.20 45.21Q452.34 45.61 450.88 45.61Q448.49 45.61 447.17 44.85Q445.85 44.09 445.31 42.86Q444.78 41.63 444.78 37.67L444.78 22.75L441.55 22.75L441.55 19.34L444.78 19.34L444.78 12.92L449.15 10.28L449.15 19.34L453.56 19.34L453.56 22.75L449.15 22.75L449.15 37.92Q449.15 39.79 449.38 40.33Q449.61 40.87 450.13 41.19Q450.66 41.50 451.64 41.50Q452.37 41.50 453.56 41.33ZM475.61 36.91L480.15 37.48Q479.08 41.46 476.17 43.65Q473.27 45.85 468.75 45.85Q463.06 45.85 459.73 42.35Q456.40 38.84 456.40 32.52Q456.40 25.98 459.77 22.36Q463.13 18.75 468.51 18.75Q473.71 18.75 477.00 22.29Q480.30 25.83 480.30 32.25Q480.30 32.64 480.27 33.42L460.94 33.42Q461.18 37.70 463.35 39.97Q465.53 42.24 468.77 42.24Q471.19 42.24 472.90 40.97Q474.61 39.70 475.61 36.91M461.18 29.81L475.66 29.81Q475.37 26.54 474.00 24.90Q471.90 22.36 468.55 22.36Q465.53 22.36 463.46 24.39Q461.40 26.42 461.18 29.81ZM482.74 45.26L492.21 31.79L483.45 19.34L488.94 19.34L492.92 25.42Q494.04 27.15 494.73 28.32Q495.80 26.71 496.70 25.46L501.07 19.34L506.32 19.34L497.36 31.54L507.01 45.26L501.61 45.26L496.29 37.21L494.87 35.03L488.06 45.26L482.74 45.26ZM520.26 41.33L520.90 45.21Q519.04 45.61 517.58 45.61Q515.19 45.61 513.87 44.85Q512.55 44.09 512.01 42.86Q511.47 41.63 511.47 37.67L511.47 22.75L508.25 22.75L508.25 19.34L511.47 19.34L511.47 12.92L515.84 10.28L515.84 19.34L520.26 19.34L520.26 22.75L515.84 22.75L515.84 37.92Q515.84 39.79 516.08 40.33Q516.31 40.87 516.83 41.19Q517.36 41.50 518.33 41.50Q519.07 41.50 520.26 41.33ZM525.81 45.26L525.81 40.26L530.81 40.26L530.81 45.26L525.81 45.26Z"/></g><g transform="translate(0, 121.19140625)"><path d="M0 45.26L0 9.47L4.74 9.47L4.74 24.17L23.34 24.17L23.34 9.47L28.08 9.47L28.08 45.26L23.34 45.26L23.34 28.39L4.74 28.39L4.74 45.26L0 45.26ZM53.15 36.91L57.69 37.48Q56.62 41.46 53.71 43.65Q50.81 45.85 46.29 45.85Q40.60 45.85 37.27 42.35Q33.94 38.84 33.94 32.52Q33.94 25.98 37.30 22.36Q40.67 18.75 46.04 18.75Q51.25 18.75 54.54 22.29Q57.84 25.83 57.84 32.25Q57.84 32.64 57.81 33.42L38.48 33.42Q38.72 37.70 40.89 39.97Q43.07 42.24 46.31 42.24Q48.73 42.24 50.44 40.97Q52.15 39.70 53.15 36.91M38.72 29.81L53.20 29.81Q52.91 26.54 51.54 24.90Q49.44 22.36 46.09 22.36Q43.07 22.36 41.00 24.39Q38.94 26.42 38.72 29.81ZM63.16 45.26L63.16 19.34L67.11 19.34L67.11 23.27Q68.63 20.51 69.91 19.63Q71.19 18.75 72.73 18.75Q74.95 18.75 77.25 20.17L75.73 24.24Q74.12 23.29 72.51 23.29Q71.07 23.29 69.92 24.16Q68.77 25.02 68.29 26.56Q67.55 28.91 67.55 31.69L67.55 45.26L63.16 45.26ZM97.61 36.91L102.15 37.48Q101.07 41.46 98.17 43.65Q95.26 45.85 90.75 45.85Q85.06 45.85 81.73 42.35Q78.39 38.84 78.39 32.52Q78.39 25.98 81.76 22.36Q85.13 18.75 90.50 18.75Q95.70 18.75 99.00 22.29Q102.29 25.83 102.29 32.25Q102.29 32.64 102.27 33.42L82.93 33.42Q83.18 37.70 85.35 39.97Q87.52 42.24 90.77 42.24Q93.19 42.24 94.90 40.97Q96.61 39.70 97.61 36.91M83.18 29.81L97.66 29.81Q97.36 26.54 96.00 24.90Q93.90 22.36 90.55 22.36Q87.52 22.36 85.46 24.39Q83.40 26.42 83.18 29.81ZM121.58 14.53L121.58 9.47L125.98 9.47L125.98 14.53L121.58 14.53M121.58 45.26L121.58 19.34L125.98 19.34L125.98 45.26L121.58 45.26ZM130.91 37.52L135.25 36.84Q135.62 39.45 137.29 40.84Q138.96 42.24 141.97 42.24Q145.00 42.24 146.46 41.00Q147.92 39.77 147.92 38.11Q147.92 36.62 146.63 35.77Q145.73 35.18 142.14 34.28Q137.30 33.06 135.44 32.17Q133.57 31.27 132.60 29.70Q131.64 28.13 131.64 26.22Q131.64 24.49 132.43 23.01Q133.23 21.53 134.59 20.56Q135.62 19.80 137.39 19.27Q139.16 18.75 141.19 18.75Q144.24 18.75 146.55 19.63Q148.85 20.51 149.95 22.01Q151.05 23.51 151.46 26.03L147.17 26.61Q146.88 24.61 145.47 23.49Q144.07 22.36 141.50 22.36Q138.48 22.36 137.18 23.36Q135.89 24.37 135.89 25.71Q135.89 26.56 136.43 27.25Q136.96 27.95 138.11 28.42Q138.77 28.66 141.99 29.54Q146.66 30.79 148.50 31.58Q150.34 32.37 151.39 33.89Q152.44 35.40 152.44 37.65Q152.44 39.84 151.16 41.78Q149.88 43.73 147.46 44.79Q145.04 45.85 141.99 45.85Q136.94 45.85 134.29 43.75Q131.64 41.65 130.91 37.52ZM171.46 45.26L171.46 9.47L175.85 9.47L175.85 45.26L171.46 45.26ZM182.69 14.53L182.69 9.47L187.08 9.47L187.08 14.53L182.69 14.53M182.69 45.26L182.69 19.34L187.08 19.34L187.08 45.26L182.69 45.26ZM193.77 45.26L193.77 19.34L197.73 19.34L197.73 23.02Q200.59 18.75 205.98 18.75Q208.33 18.75 210.29 19.59Q212.26 20.43 213.23 21.80Q214.21 23.17 214.60 25.05Q214.84 26.27 214.84 29.32L214.84 45.26L210.45 45.26L210.45 29.49Q210.45 26.81 209.94 25.48Q209.42 24.15 208.12 23.35Q206.81 22.56 205.05 22.56Q202.25 22.56 200.21 24.34Q198.17 26.12 198.17 31.10L198.17 45.26L193.77 45.26ZM239.33 36.91L243.87 37.48Q242.80 41.46 239.89 43.65Q236.99 45.85 232.47 45.85Q226.78 45.85 223.45 42.35Q220.12 38.84 220.12 32.52Q220.12 25.98 223.49 22.36Q226.86 18.75 232.23 18.75Q237.43 18.75 240.72 22.29Q244.02 25.83 244.02 32.25Q244.02 32.64 243.99 33.42L224.66 33.42Q224.90 37.70 227.08 39.97Q229.25 42.24 232.50 42.24Q234.91 42.24 236.62 40.97Q238.33 39.70 239.33 36.91M224.90 29.81L239.38 29.81Q239.09 26.54 237.72 24.90Q235.62 22.36 232.28 22.36Q229.25 22.36 227.19 24.39Q225.12 26.42 224.90 29.81ZM262.08 35.82L266.48 35.23Q267.24 38.96 269.06 40.61Q270.87 42.26 273.49 42.26Q276.59 42.26 278.72 40.11Q280.86 37.96 280.86 34.79Q280.86 31.76 278.88 29.80Q276.90 27.83 273.85 27.83Q272.61 27.83 270.75 28.32L271.24 24.46Q271.68 24.51 271.95 24.51Q274.76 24.51 277.00 23.05Q279.25 21.58 279.25 18.53Q279.25 16.11 277.61 14.53Q275.98 12.94 273.39 12.94Q270.83 12.94 269.12 14.55Q267.41 16.16 266.92 19.38L262.52 18.60Q263.33 14.18 266.19 11.76Q269.04 9.33 273.29 9.33Q276.22 9.33 278.69 10.58Q281.15 11.84 282.46 14.01Q283.76 16.19 283.76 18.63Q283.76 20.95 282.52 22.85Q281.27 24.76 278.83 25.88Q282.01 26.61 283.76 28.92Q285.52 31.23 285.52 34.69Q285.52 39.38 282.10 42.64Q278.69 45.90 273.46 45.90Q268.75 45.90 265.64 43.09Q262.52 40.28 262.08 35.82ZM303.34 32.30Q303.34 25.10 307.35 21.63Q310.69 18.75 315.50 18.75Q320.85 18.75 324.24 22.25Q327.64 25.76 327.64 31.93Q327.64 36.94 326.14 39.81Q324.63 42.68 321.77 44.26Q318.90 45.85 315.50 45.85Q310.06 45.85 306.70 42.36Q303.34 38.87 303.34 32.30M307.86 32.30Q307.86 37.28 310.03 39.76Q312.21 42.24 315.50 42.24Q318.77 42.24 320.95 39.75Q323.12 37.26 323.12 32.15Q323.12 27.34 320.94 24.87Q318.75 22.39 315.50 22.39Q312.21 22.39 310.03 24.85Q307.86 27.32 307.86 32.30ZM333.84 45.26L333.84 22.75L329.96 22.75L329.96 19.34L333.84 19.34L333.84 16.58Q333.84 13.96 334.30 12.70Q334.94 10.99 336.54 9.92Q338.13 8.86 341.02 8.86Q342.87 8.86 345.12 9.30L344.46 13.13Q343.09 12.89 341.87 12.89Q339.87 12.89 339.04 13.75Q338.21 14.60 338.21 16.94L338.21 19.34L343.26 19.34L343.26 22.75L338.21 22.75L338.21 45.26L333.84 45.26ZM370.17 41.33L370.80 45.21Q368.95 45.61 367.48 45.61Q365.09 45.61 363.77 44.85Q362.45 44.09 361.91 42.86Q361.38 41.63 361.38 37.67L361.38 22.75L358.15 22.75L358.15 19.34L361.38 19.34L361.38 12.92L365.75 10.28L365.75 19.34L370.17 19.34L370.17 22.75L365.75 22.75L365.75 37.92Q365.75 39.79 365.98 40.33Q366.21 40.87 366.74 41.19Q367.26 41.50 368.24 41.50Q368.97 41.50 370.17 41.33ZM374.46 45.26L374.46 9.47L378.86 9.47L378.86 22.31Q381.93 18.75 386.62 18.75Q389.50 18.75 391.63 19.89Q393.75 21.02 394.67 23.02Q395.58 25.02 395.58 28.83L395.58 45.26L391.19 45.26L391.19 28.83Q391.19 25.54 389.76 24.04Q388.33 22.53 385.72 22.53Q383.76 22.53 382.04 23.55Q380.32 24.56 379.59 26.29Q378.86 28.03 378.86 31.08L378.86 45.26L374.46 45.26ZM420.02 36.91L424.56 37.48Q423.49 41.46 420.58 43.65Q417.68 45.85 413.16 45.85Q407.47 45.85 404.14 42.35Q400.81 38.84 400.81 32.52Q400.81 25.98 404.17 22.36Q407.54 18.75 412.92 18.75Q418.12 18.75 421.41 22.29Q424.71 25.83 424.71 32.25Q424.71 32.64 424.68 33.42L405.35 33.42Q405.59 37.70 407.76 39.97Q409.94 42.24 413.18 42.24Q415.60 42.24 417.31 40.97Q419.02 39.70 420.02 36.91M405.59 29.81L420.07 29.81Q419.78 26.54 418.41 24.90Q416.31 22.36 412.96 22.36Q409.94 22.36 407.87 24.39Q405.81 26.42 405.59 29.81ZM453.56 41.33L454.20 45.21Q452.34 45.61 450.88 45.61Q448.49 45.61 447.17 44.85Q445.85 44.09 445.31 42.86Q444.78 41.63 444.78 37.67L444.78 22.75L441.55 22.75L441.55 19.34L444.78 19.34L444.78 12.92L449.15 10.28L449.15 19.34L453.56 19.34L453.56 22.75L449.15 22.75L449.15 37.92Q449.15 39.79 449.38 40.33Q449.61 40.87 450.13 41.19Q450.66 41.50 451.64 41.50Q452.37 41.50 453.56 41.33ZM475.61 36.91L480.15 37.48Q479.08 41.46 476.17 43.65Q473.27 45.85 468.75 45.85Q463.06 45.85 459.73 42.35Q456.40 38.84 456.40 32.52Q456.40 25.98 459.77 22.36Q463.13 18.75 468.51 18.75Q473.71 18.75 477.00 22.29Q480.30 25.83 480.30 32.25Q480.30 32.64 480.27 33.42L460.94 33.42Q461.18 37.70 463.35 39.97Q465.53 42.24 468.77 42.24Q471.19 42.24 472.90 40.97Q474.61 39.70 475.61 36.91M461.18 29.81L475.66 29.81Q475.37 26.54 474.00 24.90Q471.90 22.36 468.55 22.36Q465.53 22.36 463.46 24.39Q461.40 26.42 461.18 29.81ZM482.74 45.26L492.21 31.79L483.45 19.34L488.94 19.34L492.92 25.42Q494.04 27.15 494.73 28.32Q495.80 26.71 496.70 25.46L501.07 19.34L506.32 19.34L497.36 31.54L507.01 45.26L501.61 45.26L496.29 37.21L494.87 35.03L488.06 45.26L482.74 45.26ZM520.26 41.33L520.90 45.21Q519.04 45.61 517.58 45.61Q515.19 45.61 513.87 44.85Q512.55 44.09 512.01 42.86Q511.47 41.63 511.47 37.67L511.47 22.75L508.25 22.75L508.25 19.34L511.47 19.34L511.47 12.92L515.84 10.28L515.84 19.34L520.26 19.34L520.26 22.75L515.84 22.75L515.84 37.92Q515.84 39.79 516.08 40.33Q516.31 40.87 516.83 41.19Q517.36 41.50 518.33 41.50Q519.07 41.50 520.26 41.33ZM525.81 45.26L525.81 40.26L530.81 40.26L530.81 45.26L525.81 45.26Z"/></g></g></svg>